%TF.GenerationSoftware,KiCad,Pcbnew,9.0.1*%
%TF.CreationDate,2025-04-24T11:34:14-03:00*%
%TF.ProjectId,STM32_USB_Buck_Converter,53544d33-325f-4555-9342-5f4275636b5f,rev?*%
%TF.SameCoordinates,Original*%
%TF.FileFunction,Paste,Top*%
%TF.FilePolarity,Positive*%
%FSLAX46Y46*%
G04 Gerber Fmt 4.6, Leading zero omitted, Abs format (unit mm)*
G04 Created by KiCad (PCBNEW 9.0.1) date 2025-04-24 11:34:14*
%MOMM*%
%LPD*%
G01*
G04 APERTURE LIST*
G04 Aperture macros list*
%AMRoundRect*
0 Rectangle with rounded corners*
0 $1 Rounding radius*
0 $2 $3 $4 $5 $6 $7 $8 $9 X,Y pos of 4 corners*
0 Add a 4 corners polygon primitive as box body*
4,1,4,$2,$3,$4,$5,$6,$7,$8,$9,$2,$3,0*
0 Add four circle primitives for the rounded corners*
1,1,$1+$1,$2,$3*
1,1,$1+$1,$4,$5*
1,1,$1+$1,$6,$7*
1,1,$1+$1,$8,$9*
0 Add four rect primitives between the rounded corners*
20,1,$1+$1,$2,$3,$4,$5,0*
20,1,$1+$1,$4,$5,$6,$7,0*
20,1,$1+$1,$6,$7,$8,$9,0*
20,1,$1+$1,$8,$9,$2,$3,0*%
G04 Aperture macros list end*
%ADD10RoundRect,0.200000X0.275000X-0.200000X0.275000X0.200000X-0.275000X0.200000X-0.275000X-0.200000X0*%
%ADD11RoundRect,0.218750X0.256250X-0.218750X0.256250X0.218750X-0.256250X0.218750X-0.256250X-0.218750X0*%
%ADD12R,0.740000X2.400000*%
%ADD13R,1.500000X0.700000*%
%ADD14R,0.800000X1.000000*%
%ADD15RoundRect,0.140000X-0.140000X-0.170000X0.140000X-0.170000X0.140000X0.170000X-0.140000X0.170000X0*%
%ADD16R,1.350000X0.400000*%
%ADD17R,1.400000X1.600000*%
%ADD18R,1.900000X1.900000*%
%ADD19RoundRect,0.250000X-0.325000X-0.650000X0.325000X-0.650000X0.325000X0.650000X-0.325000X0.650000X0*%
%ADD20RoundRect,0.225000X0.250000X-0.225000X0.250000X0.225000X-0.250000X0.225000X-0.250000X-0.225000X0*%
%ADD21RoundRect,0.250000X-1.000000X0.700000X-1.000000X-0.700000X1.000000X-0.700000X1.000000X0.700000X0*%
%ADD22RoundRect,0.150000X0.512500X0.150000X-0.512500X0.150000X-0.512500X-0.150000X0.512500X-0.150000X0*%
%ADD23RoundRect,0.135000X0.135000X0.185000X-0.135000X0.185000X-0.135000X-0.185000X0.135000X-0.185000X0*%
%ADD24RoundRect,0.200000X-0.275000X0.200000X-0.275000X-0.200000X0.275000X-0.200000X0.275000X0.200000X0*%
%ADD25RoundRect,0.140000X0.170000X-0.140000X0.170000X0.140000X-0.170000X0.140000X-0.170000X-0.140000X0*%
%ADD26RoundRect,0.150000X-0.150000X0.587500X-0.150000X-0.587500X0.150000X-0.587500X0.150000X0.587500X0*%
%ADD27RoundRect,0.218750X-0.381250X0.218750X-0.381250X-0.218750X0.381250X-0.218750X0.381250X0.218750X0*%
%ADD28RoundRect,0.140000X0.140000X0.170000X-0.140000X0.170000X-0.140000X-0.170000X0.140000X-0.170000X0*%
%ADD29RoundRect,0.225000X-0.225000X-0.375000X0.225000X-0.375000X0.225000X0.375000X-0.225000X0.375000X0*%
%ADD30RoundRect,0.225000X-0.225000X-0.250000X0.225000X-0.250000X0.225000X0.250000X-0.225000X0.250000X0*%
%ADD31RoundRect,0.147500X-0.147500X-0.172500X0.147500X-0.172500X0.147500X0.172500X-0.147500X0.172500X0*%
%ADD32RoundRect,0.135000X-0.135000X-0.185000X0.135000X-0.185000X0.135000X0.185000X-0.135000X0.185000X0*%
%ADD33R,1.200000X1.400000*%
%ADD34RoundRect,0.250000X0.375000X0.625000X-0.375000X0.625000X-0.375000X-0.625000X0.375000X-0.625000X0*%
%ADD35RoundRect,0.150000X0.150000X-0.512500X0.150000X0.512500X-0.150000X0.512500X-0.150000X-0.512500X0*%
%ADD36RoundRect,0.225000X0.225000X0.250000X-0.225000X0.250000X-0.225000X-0.250000X0.225000X-0.250000X0*%
%ADD37RoundRect,0.075000X-0.075000X-0.700000X0.075000X-0.700000X0.075000X0.700000X-0.075000X0.700000X0*%
%ADD38RoundRect,0.075000X-0.700000X-0.075000X0.700000X-0.075000X0.700000X0.075000X-0.700000X0.075000X0*%
G04 APERTURE END LIST*
D10*
%TO.C,R6*%
X144000000Y-75712500D03*
X144000000Y-77362500D03*
%TD*%
D11*
%TO.C,D3*%
X146000000Y-75750000D03*
X146000000Y-77325000D03*
%TD*%
D12*
%TO.C,J2*%
X137290000Y-74875000D03*
X137290000Y-78775000D03*
X136020000Y-74875000D03*
X136020000Y-78775000D03*
X134750000Y-74875000D03*
X134750000Y-78775000D03*
X133480000Y-74875000D03*
X133480000Y-78775000D03*
X132210000Y-74875000D03*
X132210000Y-78775000D03*
%TD*%
D13*
%TO.C,SW1*%
X109250000Y-88750000D03*
X109250000Y-87250000D03*
X109250000Y-84250000D03*
D14*
X106390000Y-90150000D03*
X108600000Y-90150000D03*
X106390000Y-82850000D03*
X108600000Y-82850000D03*
%TD*%
D15*
%TO.C,C8*%
X130250000Y-102750000D03*
X131210000Y-102750000D03*
%TD*%
D16*
%TO.C,J5*%
X155775000Y-88770000D03*
X155775000Y-88120000D03*
X155775000Y-87470000D03*
X155775000Y-86820000D03*
X155775000Y-86170000D03*
D17*
X156000000Y-90670000D03*
D18*
X158450000Y-88670000D03*
X158450000Y-86270000D03*
D17*
X156000000Y-84270000D03*
%TD*%
D19*
%TO.C,C1*%
X145625000Y-101600000D03*
X148575000Y-101600000D03*
%TD*%
D20*
%TO.C,C4*%
X142650000Y-105700000D03*
X142650000Y-107250000D03*
%TD*%
D10*
%TO.C,R2*%
X150500000Y-104175000D03*
X150500000Y-105825000D03*
%TD*%
D15*
%TO.C,C10*%
X122210000Y-89075000D03*
X121250000Y-89075000D03*
%TD*%
D11*
%TO.C,D4*%
X118750000Y-102325000D03*
X118750000Y-103900000D03*
%TD*%
D21*
%TO.C,L1*%
X138400000Y-104650000D03*
X138400000Y-108750000D03*
%TD*%
D22*
%TO.C,U3*%
X151025000Y-88750000D03*
X151025000Y-87800000D03*
X151025000Y-86850000D03*
X148750000Y-86850000D03*
X148750000Y-87800000D03*
X148750000Y-88750000D03*
%TD*%
D23*
%TO.C,R10*%
X125250000Y-85825000D03*
X126270000Y-85825000D03*
%TD*%
D24*
%TO.C,R4*%
X150500000Y-107750000D03*
X150500000Y-109400000D03*
%TD*%
D25*
%TO.C,C6*%
X117750000Y-91825000D03*
X117750000Y-92785000D03*
%TD*%
D26*
%TO.C,Q1*%
X150700000Y-97125000D03*
X148800000Y-97125000D03*
X149750000Y-99000000D03*
%TD*%
D25*
%TO.C,C11*%
X116500000Y-98075000D03*
X116500000Y-99035000D03*
%TD*%
%TO.C,C12*%
X117750000Y-98075000D03*
X117750000Y-99035000D03*
%TD*%
D19*
%TO.C,C2*%
X138400000Y-111500000D03*
X141350000Y-111500000D03*
%TD*%
D20*
%TO.C,C14*%
X133250000Y-91225000D03*
X133250000Y-92775000D03*
%TD*%
D27*
%TO.C,FB1*%
X145600000Y-97125000D03*
X145600000Y-99250000D03*
%TD*%
D23*
%TO.C,R8*%
X116690000Y-95750000D03*
X117710000Y-95750000D03*
%TD*%
D10*
%TO.C,R5*%
X152500000Y-109400000D03*
X152500000Y-107750000D03*
%TD*%
D23*
%TO.C,R7*%
X111240000Y-87250000D03*
X112260000Y-87250000D03*
%TD*%
D28*
%TO.C,C16*%
X113770000Y-97750000D03*
X114730000Y-97750000D03*
%TD*%
D29*
%TO.C,D2*%
X138400000Y-101750000D03*
X141700000Y-101750000D03*
%TD*%
D25*
%TO.C,C9*%
X131500000Y-90575000D03*
X131500000Y-91535000D03*
%TD*%
D30*
%TO.C,C13*%
X130525000Y-104325000D03*
X128975000Y-104325000D03*
%TD*%
D31*
%TO.C,L2*%
X115485000Y-100250000D03*
X114515000Y-100250000D03*
%TD*%
D32*
%TO.C,R11*%
X124000000Y-85825000D03*
X122980000Y-85825000D03*
%TD*%
D33*
%TO.C,Y1*%
X115000000Y-93650000D03*
X115000000Y-95850000D03*
X113300000Y-95850000D03*
X113300000Y-93650000D03*
%TD*%
D34*
%TO.C,F1*%
X148400000Y-94500000D03*
X145600000Y-94500000D03*
%TD*%
D28*
%TO.C,C7*%
X121770000Y-104075000D03*
X122730000Y-104075000D03*
%TD*%
D15*
%TO.C,C15*%
X114730000Y-91750000D03*
X113770000Y-91750000D03*
%TD*%
D35*
%TO.C,U1*%
X144675000Y-107637500D03*
X145625000Y-107637500D03*
X146575000Y-107637500D03*
X146575000Y-105362500D03*
X145625000Y-105362500D03*
X144675000Y-105362500D03*
%TD*%
D19*
%TO.C,C3*%
X138425000Y-114250000D03*
X141375000Y-114250000D03*
%TD*%
D24*
%TO.C,R1*%
X148500000Y-104175000D03*
X148500000Y-105825000D03*
%TD*%
D36*
%TO.C,C5*%
X117750000Y-89075000D03*
X119300000Y-89075000D03*
%TD*%
D10*
%TO.C,R9*%
X116750000Y-102325000D03*
X116750000Y-103975000D03*
%TD*%
D29*
%TO.C,D1*%
X150750000Y-94500000D03*
X154050000Y-94500000D03*
%TD*%
D10*
%TO.C,R3*%
X148500000Y-109400000D03*
X148500000Y-107750000D03*
%TD*%
D37*
%TO.C,U2*%
X121500000Y-90825000D03*
X122000000Y-90825000D03*
X122500000Y-90825000D03*
X123000000Y-90825000D03*
X123500000Y-90825000D03*
X124000000Y-90825000D03*
X124500000Y-90825000D03*
X125000000Y-90825000D03*
X125500000Y-90825000D03*
X126000000Y-90825000D03*
X126500000Y-90825000D03*
X127000000Y-90825000D03*
X127500000Y-90825000D03*
X128000000Y-90825000D03*
X128500000Y-90825000D03*
X129000000Y-90825000D03*
D38*
X130925000Y-92750000D03*
X130925000Y-93250000D03*
X130925000Y-93750000D03*
X130925000Y-94250000D03*
X130925000Y-94750000D03*
X130925000Y-95250000D03*
X130925000Y-95750000D03*
X130925000Y-96250000D03*
X130925000Y-96750000D03*
X130925000Y-97250000D03*
X130925000Y-97750000D03*
X130925000Y-98250000D03*
X130925000Y-98750000D03*
X130925000Y-99250000D03*
X130925000Y-99750000D03*
X130925000Y-100250000D03*
D37*
X129000000Y-102175000D03*
X128500000Y-102175000D03*
X128000000Y-102175000D03*
X127500000Y-102175000D03*
X127000000Y-102175000D03*
X126500000Y-102175000D03*
X126000000Y-102175000D03*
X125500000Y-102175000D03*
X125000000Y-102175000D03*
X124500000Y-102175000D03*
X124000000Y-102175000D03*
X123500000Y-102175000D03*
X123000000Y-102175000D03*
X122500000Y-102175000D03*
X122000000Y-102175000D03*
X121500000Y-102175000D03*
D38*
X119575000Y-100250000D03*
X119575000Y-99750000D03*
X119575000Y-99250000D03*
X119575000Y-98750000D03*
X119575000Y-98250000D03*
X119575000Y-97750000D03*
X119575000Y-97250000D03*
X119575000Y-96750000D03*
X119575000Y-96250000D03*
X119575000Y-95750000D03*
X119575000Y-95250000D03*
X119575000Y-94750000D03*
X119575000Y-94250000D03*
X119575000Y-93750000D03*
X119575000Y-93250000D03*
X119575000Y-92750000D03*
%TD*%
M02*
