M48
; DRILL file {KiCad 9.0.1} date 2025-04-24T12:10:40-0300
; FORMAT={-:-/ absolute / metric / decimal}
; #@! TF.CreationDate,2025-04-24T12:10:40-03:00
; #@! TF.GenerationSoftware,Kicad,Pcbnew,9.0.1
; #@! TF.FileFunction,Plated,1,4,PTH
FMAT,2
METRIC
; #@! TA.AperFunction,Plated,PTH,ViaDrill
T1C0.400
; #@! TA.AperFunction,Plated,PTH,ComponentDrill
T2C0.500
; #@! TA.AperFunction,Plated,PTH,ComponentDrill
T3C0.600
; #@! TA.AperFunction,Plated,PTH,ComponentDrill
T4C1.200
; #@! TA.AperFunction,Plated,PTH,ComponentDrill
T5C4.300
%
G90
G05
T1
X110.42Y-84.25
X110.42Y-88.75
X112.0Y-95.85
X113.075Y-97.775
X114.5Y-101.0
X114.525Y-99.5
X115.425Y-91.725
X116.3Y-93.65
X116.5Y-97.375
X116.75Y-101.5
X116.875Y-89.075
X117.025Y-91.825
X117.75Y-93.475
X117.75Y-97.375
X119.3Y-88.175
X121.075Y-104.075
X121.25Y-88.35
X122.3Y-85.825
X122.925Y-89.075
X123.425Y-104.075
X126.95Y-85.85
X127.5Y-92.75
X128.5Y-84.5
X129.7Y-103.3
X131.4Y-104.325
X131.5Y-89.875
X131.9Y-102.75
X132.075Y-92.05
X132.2Y-73.25
X133.25Y-90.35
X134.75Y-73.25
X136.025Y-73.25
X136.725Y-108.025
X136.725Y-109.1
X137.3Y-73.25
X137.4Y-111.5
X137.425Y-114.225
X139.4Y-111.5
X139.425Y-114.25
X140.075Y-108.025
X140.075Y-109.125
X142.35Y-110.8
X142.35Y-112.2
X142.375Y-113.55
X142.375Y-114.95
X142.55Y-101.15
X142.55Y-102.35
X144.0Y-74.9
X145.6Y-109.725
X145.625Y-106.625
X145.625Y-108.725
X146.0Y-74.9
X147.575Y-101.6
X147.6Y-109.4
X148.5Y-110.225
X149.575Y-101.6
X149.9Y-85.65
X150.5Y-103.35
X150.7Y-95.95
X150.7Y-98.3
X151.425Y-104.175
X152.5Y-106.9
X153.375Y-86.125
X153.4Y-85.125
X153.425Y-107.75
X154.375Y-86.125
X154.4Y-85.125
T2
X122.75Y-76.5
X122.75Y-116.5
X124.0Y-76.5
X124.0Y-116.5
X125.25Y-76.5
X125.25Y-116.5
X126.5Y-76.5
X126.5Y-116.5
T3
X107.525Y-76.5
X107.525Y-116.5
X108.47Y-74.22
X108.47Y-78.78
X108.47Y-114.22
X108.47Y-118.78
X110.75Y-73.275
X110.75Y-79.725
X110.75Y-113.275
X110.75Y-119.725
X113.03Y-74.22
X113.03Y-78.78
X113.03Y-114.22
X113.03Y-118.78
X113.975Y-76.5
X113.975Y-116.5
X152.525Y-76.5
X152.525Y-116.5
X153.47Y-74.22
X153.47Y-78.78
X153.47Y-114.22
X153.47Y-118.78
X155.75Y-73.275
X155.75Y-79.725
X155.75Y-113.275
X155.75Y-119.725
X158.03Y-74.22
X158.03Y-78.78
X158.03Y-114.22
X158.03Y-118.78
X158.975Y-76.5
X158.975Y-116.5
T4
X155.5Y-98.5
X155.5Y-102.0
T5
X110.75Y-76.5
X110.75Y-116.5
X155.75Y-76.5
X155.75Y-116.5
T2
X158.1Y-84.17G85X158.8Y-84.17
G05
X158.1Y-90.77G85X158.8Y-90.77
G05
M30
