%TF.GenerationSoftware,KiCad,Pcbnew,9.0.1*%
%TF.CreationDate,2025-04-24T11:34:14-03:00*%
%TF.ProjectId,STM32_USB_Buck_Converter,53544d33-325f-4555-9342-5f4275636b5f,rev?*%
%TF.SameCoordinates,Original*%
%TF.FileFunction,Copper,L3,Inr*%
%TF.FilePolarity,Positive*%
%FSLAX46Y46*%
G04 Gerber Fmt 4.6, Leading zero omitted, Abs format (unit mm)*
G04 Created by KiCad (PCBNEW 9.0.1) date 2025-04-24 11:34:14*
%MOMM*%
%LPD*%
G01*
G04 APERTURE LIST*
G04 Aperture macros list*
%AMRoundRect*
0 Rectangle with rounded corners*
0 $1 Rounding radius*
0 $2 $3 $4 $5 $6 $7 $8 $9 X,Y pos of 4 corners*
0 Add a 4 corners polygon primitive as box body*
4,1,4,$2,$3,$4,$5,$6,$7,$8,$9,$2,$3,0*
0 Add four circle primitives for the rounded corners*
1,1,$1+$1,$2,$3*
1,1,$1+$1,$4,$5*
1,1,$1+$1,$6,$7*
1,1,$1+$1,$8,$9*
0 Add four rect primitives between the rounded corners*
20,1,$1+$1,$2,$3,$4,$5,0*
20,1,$1+$1,$4,$5,$6,$7,0*
20,1,$1+$1,$6,$7,$8,$9,0*
20,1,$1+$1,$8,$9,$2,$3,0*%
G04 Aperture macros list end*
%TA.AperFunction,ComponentPad*%
%ADD10O,1.800000X0.900000*%
%TD*%
%TA.AperFunction,ComponentPad*%
%ADD11RoundRect,0.200000X-0.200000X-0.450000X0.200000X-0.450000X0.200000X0.450000X-0.200000X0.450000X0*%
%TD*%
%TA.AperFunction,ComponentPad*%
%ADD12O,0.800000X1.300000*%
%TD*%
%TA.AperFunction,ComponentPad*%
%ADD13C,0.900000*%
%TD*%
%TA.AperFunction,ComponentPad*%
%ADD14C,8.600000*%
%TD*%
%TA.AperFunction,ComponentPad*%
%ADD15RoundRect,0.250001X0.949999X-0.949999X0.949999X0.949999X-0.949999X0.949999X-0.949999X-0.949999X0*%
%TD*%
%TA.AperFunction,ComponentPad*%
%ADD16C,2.400000*%
%TD*%
%TA.AperFunction,ComponentPad*%
%ADD17RoundRect,0.200000X0.200000X0.450000X-0.200000X0.450000X-0.200000X-0.450000X0.200000X-0.450000X0*%
%TD*%
%TA.AperFunction,ViaPad*%
%ADD18C,0.800000*%
%TD*%
G04 APERTURE END LIST*
D10*
%TO.N,unconnected-(J5-Shield-Pad6)_4*%
%TO.C,J5*%
X158450000Y-90770000D03*
%TO.N,unconnected-(J5-Shield-Pad6)_2*%
X158450000Y-84170000D03*
%TD*%
D11*
%TO.N,+3.3V*%
%TO.C,J4*%
X122750000Y-116500000D03*
D12*
%TO.N,USART3_TX*%
X124000000Y-116500000D03*
%TO.N,USART3_RX*%
X125250000Y-116500000D03*
%TO.N,GND*%
X126500000Y-116500000D03*
%TD*%
D13*
%TO.N,GND*%
%TO.C,H3*%
X113975000Y-76500000D03*
X113030419Y-78780419D03*
X113030419Y-74219581D03*
X110750000Y-79725000D03*
D14*
X110750000Y-76500000D03*
D13*
X110750000Y-73275000D03*
X108469581Y-78780419D03*
X108469581Y-74219581D03*
X107525000Y-76500000D03*
%TD*%
%TO.N,GND*%
%TO.C,H1*%
X158975000Y-76500000D03*
X158030419Y-78780419D03*
X158030419Y-74219581D03*
X155750000Y-79725000D03*
D14*
X155750000Y-76500000D03*
D13*
X155750000Y-73275000D03*
X153469581Y-78780419D03*
X153469581Y-74219581D03*
X152525000Y-76500000D03*
%TD*%
%TO.N,GND*%
%TO.C,H2*%
X158975000Y-116500000D03*
X158030419Y-118780419D03*
X158030419Y-114219581D03*
X155750000Y-119725000D03*
D14*
X155750000Y-116500000D03*
D13*
X155750000Y-113275000D03*
X153469581Y-118780419D03*
X153469581Y-114219581D03*
X152525000Y-116500000D03*
%TD*%
D15*
%TO.N,+12V*%
%TO.C,J1*%
X155500000Y-102000000D03*
D16*
%TO.N,GND*%
X155500000Y-98500000D03*
%TD*%
D12*
%TO.N,GND*%
%TO.C,J3*%
X122750000Y-76500000D03*
%TO.N,I2C1_SDA*%
X124000000Y-76500000D03*
%TO.N,I2C1_SCL*%
X125250000Y-76500000D03*
D17*
%TO.N,+3.3V*%
X126500000Y-76500000D03*
%TD*%
D13*
%TO.N,GND*%
%TO.C,H4*%
X107525000Y-116500000D03*
X108469581Y-114219581D03*
X108469581Y-118780419D03*
X110750000Y-113275000D03*
D14*
X110750000Y-116500000D03*
D13*
X110750000Y-119725000D03*
X113030419Y-114219581D03*
X113030419Y-118780419D03*
X113975000Y-116500000D03*
%TD*%
D18*
%TO.N,+3.3V*%
X146000000Y-74900000D03*
%TO.N,GND*%
X144000000Y-74900000D03*
%TO.N,NRST*%
X127500000Y-92750000D03*
%TO.N,+3.3V*%
X137300000Y-73250000D03*
%TO.N,GND*%
X134750000Y-73250000D03*
X132200000Y-73250000D03*
X136025000Y-73250000D03*
%TO.N,NRST*%
X128500000Y-84500000D03*
%TO.N,GND*%
X149900000Y-85650000D03*
X112000000Y-95850000D03*
X116300000Y-93650000D03*
X117025000Y-91825000D03*
X142550000Y-101150000D03*
X142550000Y-102350000D03*
X145625000Y-106625000D03*
X145600000Y-109725000D03*
X145625000Y-108725000D03*
X142375000Y-114950000D03*
X142375000Y-113550000D03*
X142350000Y-112200000D03*
X142350000Y-110800000D03*
X153425000Y-107750000D03*
X152500000Y-106900000D03*
X151425000Y-104175000D03*
X150500000Y-103350000D03*
X150700000Y-98300000D03*
X150700000Y-95950000D03*
X149575000Y-101600000D03*
X147575000Y-101600000D03*
X153375000Y-86125000D03*
X153400000Y-85125000D03*
X154400000Y-85125000D03*
X154375000Y-86125000D03*
X131500000Y-89875000D03*
X133250000Y-90350000D03*
X131900000Y-102750000D03*
X131400000Y-104325000D03*
X121075000Y-104075000D03*
X116750000Y-101500000D03*
X117750000Y-97375000D03*
X116500000Y-97375000D03*
X113075000Y-97775000D03*
X115425000Y-91725000D03*
X110420000Y-88750000D03*
X122925000Y-89075000D03*
X116875000Y-89075000D03*
%TO.N,+3.3V*%
X148500000Y-110225000D03*
X147600000Y-109400000D03*
X139425000Y-114250000D03*
X137425000Y-114225000D03*
X139400000Y-111500000D03*
X137400000Y-111500000D03*
X136725000Y-109100000D03*
X140075000Y-109125000D03*
X140075000Y-108025000D03*
X136725000Y-108025000D03*
X132075000Y-92050000D03*
X121250000Y-88350000D03*
X117750000Y-93475000D03*
X114525000Y-99500000D03*
X114500000Y-101000000D03*
X123425000Y-104075000D03*
X129700000Y-103300000D03*
X110420000Y-84250000D03*
X119300000Y-88175000D03*
X122300000Y-85825000D03*
X126950000Y-85850000D03*
%TD*%
%TA.AperFunction,Conductor*%
%TO.N,+3.3V*%
G36*
X155752562Y-71400605D02*
G01*
X156166004Y-71417705D01*
X156176177Y-71418548D01*
X156584264Y-71469417D01*
X156594372Y-71471104D01*
X156996831Y-71555490D01*
X157006767Y-71558006D01*
X157400906Y-71675346D01*
X157410574Y-71678665D01*
X157687793Y-71786837D01*
X157793671Y-71828151D01*
X157803056Y-71832268D01*
X158172475Y-72012866D01*
X158181489Y-72017743D01*
X158534765Y-72228250D01*
X158543344Y-72233856D01*
X158619344Y-72288119D01*
X158878008Y-72472800D01*
X158886085Y-72479087D01*
X158970447Y-72550538D01*
X159199883Y-72744861D01*
X159207423Y-72751802D01*
X159498197Y-73042576D01*
X159505138Y-73050116D01*
X159770908Y-73363909D01*
X159777203Y-73371997D01*
X160016143Y-73706655D01*
X160021749Y-73715234D01*
X160232256Y-74068510D01*
X160237133Y-74077524D01*
X160417731Y-74446943D01*
X160421848Y-74456328D01*
X160571329Y-74839413D01*
X160574657Y-74849106D01*
X160691993Y-75243232D01*
X160694509Y-75253168D01*
X160778895Y-75655627D01*
X160780582Y-75665735D01*
X160831449Y-76073801D01*
X160832295Y-76084015D01*
X160849394Y-76497437D01*
X160849500Y-76502561D01*
X160849500Y-116497438D01*
X160849394Y-116502562D01*
X160832295Y-116915984D01*
X160831449Y-116926198D01*
X160780582Y-117334264D01*
X160778895Y-117344372D01*
X160694509Y-117746831D01*
X160691993Y-117756767D01*
X160574657Y-118150893D01*
X160571329Y-118160586D01*
X160421848Y-118543671D01*
X160417731Y-118553056D01*
X160237133Y-118922475D01*
X160232256Y-118931489D01*
X160021749Y-119284765D01*
X160016143Y-119293344D01*
X159777203Y-119628002D01*
X159770908Y-119636090D01*
X159505138Y-119949883D01*
X159498197Y-119957423D01*
X159207423Y-120248197D01*
X159199883Y-120255138D01*
X158886090Y-120520908D01*
X158878002Y-120527203D01*
X158543344Y-120766143D01*
X158534765Y-120771749D01*
X158181489Y-120982256D01*
X158172475Y-120987133D01*
X157803056Y-121167731D01*
X157793671Y-121171848D01*
X157410586Y-121321329D01*
X157400893Y-121324657D01*
X157006767Y-121441993D01*
X156996831Y-121444509D01*
X156594372Y-121528895D01*
X156584264Y-121530582D01*
X156176198Y-121581449D01*
X156165984Y-121582295D01*
X155752563Y-121599394D01*
X155747439Y-121599500D01*
X110752561Y-121599500D01*
X110747437Y-121599394D01*
X110334015Y-121582295D01*
X110323801Y-121581449D01*
X109915735Y-121530582D01*
X109905627Y-121528895D01*
X109503168Y-121444509D01*
X109493232Y-121441993D01*
X109099106Y-121324657D01*
X109089413Y-121321329D01*
X108706328Y-121171848D01*
X108696943Y-121167731D01*
X108327524Y-120987133D01*
X108318510Y-120982256D01*
X107965234Y-120771749D01*
X107956655Y-120766143D01*
X107621997Y-120527203D01*
X107613909Y-120520908D01*
X107300116Y-120255138D01*
X107292576Y-120248197D01*
X107001802Y-119957423D01*
X106994861Y-119949883D01*
X106729091Y-119636090D01*
X106722796Y-119628002D01*
X106483856Y-119293344D01*
X106478250Y-119284765D01*
X106267743Y-118931489D01*
X106262866Y-118922475D01*
X106082268Y-118553056D01*
X106078151Y-118543671D01*
X105998218Y-118338822D01*
X105928665Y-118160574D01*
X105925346Y-118150906D01*
X105808006Y-117756767D01*
X105805490Y-117746831D01*
X105721104Y-117344372D01*
X105719417Y-117334264D01*
X105714708Y-117296486D01*
X105668548Y-116926177D01*
X105667705Y-116916004D01*
X105650606Y-116502562D01*
X105650500Y-116497438D01*
X105650500Y-116290402D01*
X105949500Y-116290402D01*
X105949500Y-116709597D01*
X105986035Y-117127190D01*
X105986035Y-117127194D01*
X106058824Y-117539998D01*
X106058828Y-117540015D01*
X106167316Y-117944902D01*
X106167319Y-117944912D01*
X106167320Y-117944913D01*
X106310691Y-118338822D01*
X106310694Y-118338829D01*
X106310695Y-118338831D01*
X106310698Y-118338839D01*
X106487843Y-118718726D01*
X106487848Y-118718736D01*
X106697443Y-119081764D01*
X106697447Y-119081770D01*
X106697454Y-119081781D01*
X106937879Y-119425144D01*
X107114885Y-119636090D01*
X107207329Y-119746260D01*
X107503740Y-120042671D01*
X107637255Y-120154704D01*
X107824855Y-120312120D01*
X108168218Y-120552545D01*
X108168225Y-120552549D01*
X108168236Y-120552557D01*
X108531264Y-120762152D01*
X108551845Y-120771749D01*
X108911160Y-120939301D01*
X108911164Y-120939302D01*
X108911178Y-120939309D01*
X109305087Y-121082680D01*
X109305093Y-121082681D01*
X109305097Y-121082683D01*
X109415359Y-121112227D01*
X109709992Y-121191174D01*
X110122812Y-121263965D01*
X110540404Y-121300499D01*
X110540405Y-121300500D01*
X110540406Y-121300500D01*
X110959595Y-121300500D01*
X110959595Y-121300499D01*
X111377188Y-121263965D01*
X111790008Y-121191174D01*
X112194913Y-121082680D01*
X112588822Y-120939309D01*
X112968736Y-120762152D01*
X113331764Y-120552557D01*
X113675143Y-120312121D01*
X113996260Y-120042671D01*
X114292671Y-119746260D01*
X114562121Y-119425143D01*
X114802557Y-119081764D01*
X115012152Y-118718736D01*
X115189309Y-118338822D01*
X115332680Y-117944913D01*
X115441174Y-117540008D01*
X115513965Y-117127188D01*
X115550500Y-116709594D01*
X115550500Y-116290406D01*
X115539205Y-116161304D01*
X123099500Y-116161304D01*
X123099500Y-116838695D01*
X123134103Y-117012658D01*
X123134106Y-117012667D01*
X123201983Y-117176540D01*
X123201990Y-117176553D01*
X123300535Y-117324034D01*
X123300538Y-117324038D01*
X123425961Y-117449461D01*
X123425965Y-117449464D01*
X123573446Y-117548009D01*
X123573459Y-117548016D01*
X123696363Y-117598923D01*
X123737334Y-117615894D01*
X123737336Y-117615894D01*
X123737341Y-117615896D01*
X123911304Y-117650499D01*
X123911307Y-117650500D01*
X123911309Y-117650500D01*
X124088693Y-117650500D01*
X124088694Y-117650499D01*
X124146682Y-117638964D01*
X124262658Y-117615896D01*
X124262661Y-117615894D01*
X124262666Y-117615894D01*
X124426547Y-117548013D01*
X124556109Y-117461442D01*
X124622786Y-117440564D01*
X124690166Y-117459048D01*
X124693891Y-117461442D01*
X124823453Y-117548013D01*
X124823455Y-117548014D01*
X124823459Y-117548016D01*
X124946363Y-117598923D01*
X124987334Y-117615894D01*
X124987336Y-117615894D01*
X124987341Y-117615896D01*
X125161304Y-117650499D01*
X125161307Y-117650500D01*
X125161309Y-117650500D01*
X125338693Y-117650500D01*
X125338694Y-117650499D01*
X125396682Y-117638964D01*
X125512658Y-117615896D01*
X125512661Y-117615894D01*
X125512666Y-117615894D01*
X125676547Y-117548013D01*
X125806109Y-117461442D01*
X125872786Y-117440564D01*
X125940166Y-117459048D01*
X125943891Y-117461442D01*
X126073453Y-117548013D01*
X126073455Y-117548014D01*
X126073459Y-117548016D01*
X126196363Y-117598923D01*
X126237334Y-117615894D01*
X126237336Y-117615894D01*
X126237341Y-117615896D01*
X126411304Y-117650499D01*
X126411307Y-117650500D01*
X126411309Y-117650500D01*
X126588693Y-117650500D01*
X126588694Y-117650499D01*
X126646682Y-117638964D01*
X126762658Y-117615896D01*
X126762661Y-117615894D01*
X126762666Y-117615894D01*
X126926547Y-117548013D01*
X127074035Y-117449464D01*
X127199464Y-117324035D01*
X127298013Y-117176547D01*
X127365894Y-117012666D01*
X127376604Y-116958827D01*
X127400499Y-116838695D01*
X127400500Y-116838693D01*
X127400500Y-116577818D01*
X147523500Y-116577818D01*
X147523500Y-116770181D01*
X147561024Y-116958827D01*
X147561026Y-116958835D01*
X147634635Y-117136542D01*
X147634640Y-117136552D01*
X147741502Y-117296482D01*
X147741505Y-117296486D01*
X147877513Y-117432494D01*
X147877517Y-117432497D01*
X148037447Y-117539359D01*
X148037451Y-117539361D01*
X148037454Y-117539363D01*
X148215165Y-117612974D01*
X148403818Y-117650499D01*
X148403822Y-117650500D01*
X148403823Y-117650500D01*
X148596178Y-117650500D01*
X148596179Y-117650499D01*
X148784835Y-117612974D01*
X148962546Y-117539363D01*
X149122483Y-117432497D01*
X149258497Y-117296483D01*
X149365363Y-117136546D01*
X149438974Y-116958835D01*
X149476500Y-116770177D01*
X149476500Y-116577823D01*
X149438974Y-116389165D01*
X149398065Y-116290402D01*
X150949500Y-116290402D01*
X150949500Y-116709597D01*
X150986035Y-117127190D01*
X150986035Y-117127194D01*
X151058824Y-117539998D01*
X151058828Y-117540015D01*
X151167316Y-117944902D01*
X151167319Y-117944912D01*
X151167320Y-117944913D01*
X151310691Y-118338822D01*
X151310694Y-118338829D01*
X151310695Y-118338831D01*
X151310698Y-118338839D01*
X151487843Y-118718726D01*
X151487848Y-118718736D01*
X151697443Y-119081764D01*
X151697447Y-119081770D01*
X151697454Y-119081781D01*
X151937879Y-119425144D01*
X152114885Y-119636090D01*
X152207329Y-119746260D01*
X152503740Y-120042671D01*
X152637255Y-120154704D01*
X152824855Y-120312120D01*
X153168218Y-120552545D01*
X153168225Y-120552549D01*
X153168236Y-120552557D01*
X153531264Y-120762152D01*
X153551845Y-120771749D01*
X153911160Y-120939301D01*
X153911164Y-120939302D01*
X153911178Y-120939309D01*
X154305087Y-121082680D01*
X154305093Y-121082681D01*
X154305097Y-121082683D01*
X154415359Y-121112227D01*
X154709992Y-121191174D01*
X155122812Y-121263965D01*
X155540404Y-121300499D01*
X155540405Y-121300500D01*
X155540406Y-121300500D01*
X155959595Y-121300500D01*
X155959595Y-121300499D01*
X156377188Y-121263965D01*
X156790008Y-121191174D01*
X157194913Y-121082680D01*
X157588822Y-120939309D01*
X157968736Y-120762152D01*
X158331764Y-120552557D01*
X158675143Y-120312121D01*
X158996260Y-120042671D01*
X159292671Y-119746260D01*
X159562121Y-119425143D01*
X159802557Y-119081764D01*
X160012152Y-118718736D01*
X160189309Y-118338822D01*
X160332680Y-117944913D01*
X160441174Y-117540008D01*
X160513965Y-117127188D01*
X160550500Y-116709594D01*
X160550500Y-116290406D01*
X160513965Y-115872812D01*
X160505260Y-115823446D01*
X160474582Y-115649461D01*
X160441174Y-115459992D01*
X160332680Y-115055087D01*
X160189309Y-114661178D01*
X160125083Y-114523446D01*
X160012156Y-114281273D01*
X160012148Y-114281257D01*
X159836226Y-113976553D01*
X159802557Y-113918236D01*
X159802549Y-113918225D01*
X159802545Y-113918218D01*
X159562120Y-113574855D01*
X159404704Y-113387255D01*
X159292671Y-113253740D01*
X158996260Y-112957329D01*
X158808544Y-112799816D01*
X158675144Y-112687879D01*
X158331781Y-112447454D01*
X158331770Y-112447447D01*
X158331764Y-112447443D01*
X158223904Y-112385169D01*
X157968742Y-112237851D01*
X157968726Y-112237843D01*
X157588839Y-112060698D01*
X157588831Y-112060695D01*
X157588829Y-112060694D01*
X157588822Y-112060691D01*
X157194913Y-111917320D01*
X157194912Y-111917319D01*
X157194902Y-111917316D01*
X156790015Y-111808828D01*
X156790018Y-111808828D01*
X156790008Y-111808826D01*
X156790002Y-111808824D01*
X156789998Y-111808824D01*
X156377192Y-111736035D01*
X155959597Y-111699500D01*
X155959594Y-111699500D01*
X155540406Y-111699500D01*
X155540402Y-111699500D01*
X155122809Y-111736035D01*
X155122805Y-111736035D01*
X154710001Y-111808824D01*
X154709984Y-111808828D01*
X154305097Y-111917316D01*
X154108132Y-111989005D01*
X153911178Y-112060691D01*
X153911174Y-112060692D01*
X153911168Y-112060695D01*
X153911160Y-112060698D01*
X153531273Y-112237843D01*
X153531257Y-112237851D01*
X153168244Y-112447438D01*
X153168218Y-112447454D01*
X152824855Y-112687879D01*
X152503737Y-112957331D01*
X152207331Y-113253737D01*
X151937879Y-113574855D01*
X151697454Y-113918218D01*
X151697438Y-113918244D01*
X151487851Y-114281257D01*
X151487843Y-114281273D01*
X151310698Y-114661160D01*
X151310695Y-114661168D01*
X151310692Y-114661174D01*
X151310691Y-114661178D01*
X151239005Y-114858132D01*
X151167316Y-115055097D01*
X151058828Y-115459984D01*
X151058824Y-115460001D01*
X150986035Y-115872805D01*
X150986035Y-115872809D01*
X150949500Y-116290402D01*
X149398065Y-116290402D01*
X149365363Y-116211454D01*
X149365362Y-116211453D01*
X149365359Y-116211447D01*
X149258497Y-116051517D01*
X149258494Y-116051513D01*
X149122486Y-115915505D01*
X149122482Y-115915502D01*
X148962552Y-115808640D01*
X148962542Y-115808635D01*
X148784835Y-115735026D01*
X148784827Y-115735024D01*
X148596181Y-115697500D01*
X148596177Y-115697500D01*
X148403823Y-115697500D01*
X148403818Y-115697500D01*
X148215172Y-115735024D01*
X148215164Y-115735026D01*
X148037457Y-115808635D01*
X148037447Y-115808640D01*
X147877517Y-115915502D01*
X147877513Y-115915505D01*
X147741505Y-116051513D01*
X147741502Y-116051517D01*
X147634640Y-116211447D01*
X147634635Y-116211457D01*
X147561026Y-116389164D01*
X147561024Y-116389172D01*
X147523500Y-116577818D01*
X127400500Y-116577818D01*
X127400500Y-116161306D01*
X127400499Y-116161304D01*
X127365896Y-115987341D01*
X127365893Y-115987332D01*
X127298016Y-115823459D01*
X127298009Y-115823446D01*
X127199464Y-115675965D01*
X127199461Y-115675961D01*
X127074038Y-115550538D01*
X127074034Y-115550535D01*
X126926553Y-115451990D01*
X126926540Y-115451983D01*
X126762667Y-115384106D01*
X126762658Y-115384103D01*
X126588694Y-115349500D01*
X126588691Y-115349500D01*
X126411309Y-115349500D01*
X126411306Y-115349500D01*
X126237341Y-115384103D01*
X126237332Y-115384106D01*
X126073459Y-115451983D01*
X126073446Y-115451990D01*
X125943891Y-115538557D01*
X125877213Y-115559435D01*
X125809833Y-115540950D01*
X125806109Y-115538557D01*
X125676553Y-115451990D01*
X125676540Y-115451983D01*
X125512667Y-115384106D01*
X125512658Y-115384103D01*
X125338694Y-115349500D01*
X125338691Y-115349500D01*
X125161309Y-115349500D01*
X125161306Y-115349500D01*
X124987341Y-115384103D01*
X124987332Y-115384106D01*
X124823459Y-115451983D01*
X124823446Y-115451990D01*
X124693891Y-115538557D01*
X124627213Y-115559435D01*
X124559833Y-115540950D01*
X124556109Y-115538557D01*
X124426553Y-115451990D01*
X124426540Y-115451983D01*
X124262667Y-115384106D01*
X124262658Y-115384103D01*
X124088694Y-115349500D01*
X124088691Y-115349500D01*
X123911309Y-115349500D01*
X123911306Y-115349500D01*
X123737341Y-115384103D01*
X123737332Y-115384106D01*
X123573459Y-115451983D01*
X123573446Y-115451990D01*
X123425965Y-115550535D01*
X123425961Y-115550538D01*
X123300538Y-115675961D01*
X123300535Y-115675965D01*
X123201990Y-115823446D01*
X123201983Y-115823459D01*
X123134106Y-115987332D01*
X123134103Y-115987341D01*
X123099500Y-116161304D01*
X115539205Y-116161304D01*
X115513965Y-115872812D01*
X115505260Y-115823446D01*
X115474582Y-115649461D01*
X115441174Y-115459992D01*
X115332680Y-115055087D01*
X115189309Y-114661178D01*
X115125083Y-114523446D01*
X115012156Y-114281273D01*
X115012148Y-114281257D01*
X114836226Y-113976553D01*
X114802557Y-113918236D01*
X114802549Y-113918225D01*
X114802545Y-113918218D01*
X114562120Y-113574855D01*
X114404704Y-113387255D01*
X114292671Y-113253740D01*
X113996260Y-112957329D01*
X113808544Y-112799816D01*
X113675144Y-112687879D01*
X113331781Y-112447454D01*
X113331770Y-112447447D01*
X113331764Y-112447443D01*
X113223904Y-112385169D01*
X112968742Y-112237851D01*
X112968726Y-112237843D01*
X112588839Y-112060698D01*
X112588831Y-112060695D01*
X112588829Y-112060694D01*
X112588822Y-112060691D01*
X112194913Y-111917320D01*
X112194912Y-111917319D01*
X112194902Y-111917316D01*
X111790015Y-111808828D01*
X111790018Y-111808828D01*
X111790008Y-111808826D01*
X111790002Y-111808824D01*
X111789998Y-111808824D01*
X111377192Y-111736035D01*
X110959597Y-111699500D01*
X110959594Y-111699500D01*
X110540406Y-111699500D01*
X110540402Y-111699500D01*
X110122809Y-111736035D01*
X110122805Y-111736035D01*
X109710001Y-111808824D01*
X109709984Y-111808828D01*
X109305097Y-111917316D01*
X109108132Y-111989005D01*
X108911178Y-112060691D01*
X108911174Y-112060692D01*
X108911168Y-112060695D01*
X108911160Y-112060698D01*
X108531273Y-112237843D01*
X108531257Y-112237851D01*
X108168244Y-112447438D01*
X108168218Y-112447454D01*
X107824855Y-112687879D01*
X107503737Y-112957331D01*
X107207331Y-113253737D01*
X106937879Y-113574855D01*
X106697454Y-113918218D01*
X106697438Y-113918244D01*
X106487851Y-114281257D01*
X106487843Y-114281273D01*
X106310698Y-114661160D01*
X106310695Y-114661168D01*
X106310692Y-114661174D01*
X106310691Y-114661178D01*
X106239005Y-114858132D01*
X106167316Y-115055097D01*
X106058828Y-115459984D01*
X106058824Y-115460001D01*
X105986035Y-115872805D01*
X105986035Y-115872809D01*
X105949500Y-116290402D01*
X105650500Y-116290402D01*
X105650500Y-110711304D01*
X141449500Y-110711304D01*
X141449500Y-110888695D01*
X141484103Y-111062658D01*
X141484106Y-111062667D01*
X141551983Y-111226540D01*
X141551990Y-111226553D01*
X141650535Y-111374034D01*
X141650538Y-111374038D01*
X141688819Y-111412319D01*
X141722304Y-111473642D01*
X141717320Y-111543334D01*
X141688819Y-111587681D01*
X141650538Y-111625961D01*
X141650535Y-111625965D01*
X141551990Y-111773446D01*
X141551983Y-111773459D01*
X141484106Y-111937332D01*
X141484103Y-111937341D01*
X141449500Y-112111304D01*
X141449500Y-112288695D01*
X141484103Y-112462658D01*
X141484106Y-112462667D01*
X141551983Y-112626540D01*
X141551990Y-112626553D01*
X141650534Y-112774033D01*
X141650535Y-112774034D01*
X141650536Y-112774035D01*
X141676319Y-112799818D01*
X141709804Y-112861139D01*
X141704820Y-112930831D01*
X141679036Y-112970956D01*
X141679401Y-112971255D01*
X141676838Y-112974377D01*
X141676328Y-112975172D01*
X141675535Y-112975965D01*
X141576990Y-113123446D01*
X141576983Y-113123459D01*
X141509106Y-113287332D01*
X141509103Y-113287341D01*
X141474500Y-113461304D01*
X141474500Y-113638695D01*
X141509103Y-113812658D01*
X141509106Y-113812667D01*
X141576983Y-113976540D01*
X141576990Y-113976553D01*
X141675535Y-114124034D01*
X141675538Y-114124038D01*
X141713819Y-114162319D01*
X141747304Y-114223642D01*
X141742320Y-114293334D01*
X141713819Y-114337681D01*
X141675538Y-114375961D01*
X141675535Y-114375965D01*
X141576990Y-114523446D01*
X141576983Y-114523459D01*
X141509106Y-114687332D01*
X141509103Y-114687341D01*
X141474500Y-114861304D01*
X141474500Y-115038695D01*
X141509103Y-115212658D01*
X141509106Y-115212667D01*
X141576983Y-115376540D01*
X141576990Y-115376553D01*
X141675535Y-115524034D01*
X141675538Y-115524038D01*
X141800961Y-115649461D01*
X141800965Y-115649464D01*
X141948446Y-115748009D01*
X141948459Y-115748016D01*
X142071363Y-115798923D01*
X142112334Y-115815894D01*
X142112336Y-115815894D01*
X142112341Y-115815896D01*
X142286304Y-115850499D01*
X142286307Y-115850500D01*
X142286309Y-115850500D01*
X142463693Y-115850500D01*
X142463694Y-115850499D01*
X142521682Y-115838964D01*
X142637658Y-115815896D01*
X142637661Y-115815894D01*
X142637666Y-115815894D01*
X142801547Y-115748013D01*
X142949035Y-115649464D01*
X143074464Y-115524035D01*
X143173013Y-115376547D01*
X143240894Y-115212666D01*
X143275500Y-115038691D01*
X143275500Y-114861309D01*
X143275500Y-114861306D01*
X143275499Y-114861304D01*
X143240896Y-114687341D01*
X143240893Y-114687332D01*
X143173016Y-114523459D01*
X143173009Y-114523446D01*
X143074464Y-114375965D01*
X143074461Y-114375961D01*
X143036181Y-114337682D01*
X143002695Y-114276360D01*
X143007679Y-114206668D01*
X143036181Y-114162318D01*
X143074461Y-114124038D01*
X143074464Y-114124035D01*
X143173013Y-113976547D01*
X143240894Y-113812666D01*
X143275500Y-113638691D01*
X143275500Y-113461309D01*
X143275500Y-113461306D01*
X143275499Y-113461304D01*
X143240896Y-113287341D01*
X143240893Y-113287332D01*
X143173016Y-113123459D01*
X143173009Y-113123446D01*
X143074465Y-112975966D01*
X143069455Y-112970956D01*
X143048679Y-112950180D01*
X143015195Y-112888860D01*
X143020179Y-112819168D01*
X143045965Y-112779045D01*
X143045599Y-112778745D01*
X143048181Y-112775598D01*
X143048686Y-112774812D01*
X143049464Y-112774035D01*
X143148013Y-112626547D01*
X143215894Y-112462666D01*
X143250500Y-112288691D01*
X143250500Y-112111309D01*
X143250500Y-112111306D01*
X143250499Y-112111304D01*
X143215896Y-111937341D01*
X143215893Y-111937332D01*
X143148016Y-111773459D01*
X143148009Y-111773446D01*
X143049464Y-111625965D01*
X143049461Y-111625961D01*
X143011181Y-111587682D01*
X142977695Y-111526360D01*
X142982679Y-111456668D01*
X143011181Y-111412318D01*
X143049461Y-111374038D01*
X143049464Y-111374035D01*
X143148013Y-111226547D01*
X143215894Y-111062666D01*
X143250500Y-110888691D01*
X143250500Y-110711309D01*
X143250500Y-110711306D01*
X143250499Y-110711304D01*
X143215896Y-110537341D01*
X143215893Y-110537332D01*
X143148016Y-110373459D01*
X143148009Y-110373446D01*
X143049464Y-110225965D01*
X143049461Y-110225961D01*
X142924038Y-110100538D01*
X142924034Y-110100535D01*
X142776553Y-110001990D01*
X142776540Y-110001983D01*
X142612667Y-109934106D01*
X142612658Y-109934103D01*
X142438694Y-109899500D01*
X142438691Y-109899500D01*
X142261309Y-109899500D01*
X142261306Y-109899500D01*
X142087341Y-109934103D01*
X142087332Y-109934106D01*
X141923459Y-110001983D01*
X141923446Y-110001990D01*
X141775965Y-110100535D01*
X141775961Y-110100538D01*
X141650538Y-110225961D01*
X141650535Y-110225965D01*
X141551990Y-110373446D01*
X141551983Y-110373459D01*
X141484106Y-110537332D01*
X141484103Y-110537341D01*
X141449500Y-110711304D01*
X105650500Y-110711304D01*
X105650500Y-109636304D01*
X144699500Y-109636304D01*
X144699500Y-109813695D01*
X144734103Y-109987658D01*
X144734106Y-109987667D01*
X144801983Y-110151540D01*
X144801990Y-110151553D01*
X144900535Y-110299034D01*
X144900538Y-110299038D01*
X145025961Y-110424461D01*
X145025965Y-110424464D01*
X145173446Y-110523009D01*
X145173459Y-110523016D01*
X145296363Y-110573923D01*
X145337334Y-110590894D01*
X145337336Y-110590894D01*
X145337341Y-110590896D01*
X145511304Y-110625499D01*
X145511307Y-110625500D01*
X145511309Y-110625500D01*
X145688693Y-110625500D01*
X145688694Y-110625499D01*
X145746682Y-110613964D01*
X145862658Y-110590896D01*
X145862661Y-110590894D01*
X145862666Y-110590894D01*
X146026547Y-110523013D01*
X146174035Y-110424464D01*
X146299464Y-110299035D01*
X146398013Y-110151547D01*
X146465894Y-109987666D01*
X146476549Y-109934103D01*
X146500499Y-109813695D01*
X146500500Y-109813693D01*
X146500500Y-109636306D01*
X146500499Y-109636304D01*
X146465896Y-109462341D01*
X146465893Y-109462332D01*
X146395682Y-109292824D01*
X146398175Y-109291791D01*
X146386288Y-109234819D01*
X146406791Y-109175823D01*
X146423013Y-109151547D01*
X146490894Y-108987666D01*
X146525500Y-108813691D01*
X146525500Y-108636309D01*
X146525500Y-108636306D01*
X146525499Y-108636304D01*
X146490896Y-108462341D01*
X146490893Y-108462332D01*
X146423016Y-108298459D01*
X146423009Y-108298446D01*
X146324464Y-108150965D01*
X146324461Y-108150961D01*
X146199038Y-108025538D01*
X146199034Y-108025535D01*
X146051553Y-107926990D01*
X146051540Y-107926983D01*
X145887667Y-107859106D01*
X145887658Y-107859103D01*
X145713694Y-107824500D01*
X145713691Y-107824500D01*
X145536309Y-107824500D01*
X145536306Y-107824500D01*
X145362341Y-107859103D01*
X145362332Y-107859106D01*
X145198459Y-107926983D01*
X145198446Y-107926990D01*
X145050965Y-108025535D01*
X145050961Y-108025538D01*
X144925538Y-108150961D01*
X144925535Y-108150965D01*
X144826990Y-108298446D01*
X144826983Y-108298459D01*
X144759106Y-108462332D01*
X144759103Y-108462341D01*
X144724500Y-108636304D01*
X144724500Y-108813695D01*
X144759103Y-108987658D01*
X144759106Y-108987667D01*
X144829318Y-109157176D01*
X144826836Y-109158203D01*
X144838706Y-109215248D01*
X144818209Y-109274174D01*
X144801988Y-109298449D01*
X144801987Y-109298452D01*
X144734106Y-109462332D01*
X144734103Y-109462341D01*
X144699500Y-109636304D01*
X105650500Y-109636304D01*
X105650500Y-106536304D01*
X144724500Y-106536304D01*
X144724500Y-106713695D01*
X144759103Y-106887658D01*
X144759106Y-106887667D01*
X144826983Y-107051540D01*
X144826990Y-107051553D01*
X144925535Y-107199034D01*
X144925538Y-107199038D01*
X145050961Y-107324461D01*
X145050965Y-107324464D01*
X145198446Y-107423009D01*
X145198459Y-107423016D01*
X145321363Y-107473923D01*
X145362334Y-107490894D01*
X145362336Y-107490894D01*
X145362341Y-107490896D01*
X145536304Y-107525499D01*
X145536307Y-107525500D01*
X145536309Y-107525500D01*
X145713693Y-107525500D01*
X145713694Y-107525499D01*
X145771682Y-107513964D01*
X145887658Y-107490896D01*
X145887661Y-107490894D01*
X145887666Y-107490894D01*
X146051547Y-107423013D01*
X146199035Y-107324464D01*
X146324464Y-107199035D01*
X146423013Y-107051547D01*
X146490894Y-106887666D01*
X146498873Y-106847550D01*
X146506084Y-106811304D01*
X151599500Y-106811304D01*
X151599500Y-106988695D01*
X151634103Y-107162658D01*
X151634106Y-107162667D01*
X151701983Y-107326540D01*
X151701990Y-107326553D01*
X151800535Y-107474034D01*
X151800538Y-107474038D01*
X151925961Y-107599461D01*
X151925965Y-107599464D01*
X152073446Y-107698009D01*
X152073459Y-107698016D01*
X152196363Y-107748923D01*
X152237334Y-107765894D01*
X152237336Y-107765894D01*
X152237341Y-107765896D01*
X152411304Y-107800499D01*
X152411307Y-107800500D01*
X152411309Y-107800500D01*
X152415139Y-107800500D01*
X152417072Y-107801067D01*
X152417369Y-107801097D01*
X152417363Y-107801153D01*
X152482178Y-107820185D01*
X152527933Y-107872989D01*
X152536756Y-107900309D01*
X152559103Y-108012657D01*
X152559106Y-108012667D01*
X152626983Y-108176540D01*
X152626990Y-108176553D01*
X152725535Y-108324034D01*
X152725538Y-108324038D01*
X152850961Y-108449461D01*
X152850965Y-108449464D01*
X152998446Y-108548009D01*
X152998459Y-108548016D01*
X153121363Y-108598923D01*
X153162334Y-108615894D01*
X153162336Y-108615894D01*
X153162341Y-108615896D01*
X153336304Y-108650499D01*
X153336307Y-108650500D01*
X153336309Y-108650500D01*
X153513693Y-108650500D01*
X153513694Y-108650499D01*
X153585059Y-108636304D01*
X153687658Y-108615896D01*
X153687661Y-108615894D01*
X153687666Y-108615894D01*
X153851547Y-108548013D01*
X153999035Y-108449464D01*
X154124464Y-108324035D01*
X154223013Y-108176547D01*
X154290894Y-108012666D01*
X154325500Y-107838691D01*
X154325500Y-107661309D01*
X154325500Y-107661306D01*
X154325499Y-107661304D01*
X154290896Y-107487341D01*
X154290893Y-107487332D01*
X154223016Y-107323459D01*
X154223009Y-107323446D01*
X154124464Y-107175965D01*
X154124461Y-107175961D01*
X153999038Y-107050538D01*
X153999034Y-107050535D01*
X153851553Y-106951990D01*
X153851540Y-106951983D01*
X153687667Y-106884106D01*
X153687658Y-106884103D01*
X153513694Y-106849500D01*
X153513691Y-106849500D01*
X153509861Y-106849500D01*
X153507927Y-106848932D01*
X153507631Y-106848903D01*
X153507636Y-106848846D01*
X153442822Y-106829815D01*
X153397067Y-106777011D01*
X153388244Y-106749691D01*
X153365896Y-106637342D01*
X153365893Y-106637332D01*
X153298016Y-106473459D01*
X153298009Y-106473446D01*
X153199464Y-106325965D01*
X153199461Y-106325961D01*
X153074038Y-106200538D01*
X153074034Y-106200535D01*
X152926553Y-106101990D01*
X152926540Y-106101983D01*
X152762667Y-106034106D01*
X152762658Y-106034103D01*
X152588694Y-105999500D01*
X152588691Y-105999500D01*
X152411309Y-105999500D01*
X152411306Y-105999500D01*
X152237341Y-106034103D01*
X152237332Y-106034106D01*
X152073459Y-106101983D01*
X152073446Y-106101990D01*
X151925965Y-106200535D01*
X151925961Y-106200538D01*
X151800538Y-106325961D01*
X151800535Y-106325965D01*
X151701990Y-106473446D01*
X151701983Y-106473459D01*
X151634106Y-106637332D01*
X151634103Y-106637341D01*
X151599500Y-106811304D01*
X146506084Y-106811304D01*
X146512107Y-106781025D01*
X146512107Y-106781024D01*
X146525499Y-106713695D01*
X146525500Y-106713693D01*
X146525500Y-106536306D01*
X146525499Y-106536304D01*
X146490896Y-106362341D01*
X146490893Y-106362332D01*
X146423016Y-106198459D01*
X146423009Y-106198446D01*
X146324464Y-106050965D01*
X146324461Y-106050961D01*
X146199038Y-105925538D01*
X146199034Y-105925535D01*
X146051553Y-105826990D01*
X146051540Y-105826983D01*
X145887667Y-105759106D01*
X145887658Y-105759103D01*
X145713694Y-105724500D01*
X145713691Y-105724500D01*
X145536309Y-105724500D01*
X145536306Y-105724500D01*
X145362341Y-105759103D01*
X145362332Y-105759106D01*
X145198459Y-105826983D01*
X145198446Y-105826990D01*
X145050965Y-105925535D01*
X145050961Y-105925538D01*
X144925538Y-106050961D01*
X144925535Y-106050965D01*
X144826990Y-106198446D01*
X144826983Y-106198459D01*
X144759106Y-106362332D01*
X144759103Y-106362341D01*
X144724500Y-106536304D01*
X105650500Y-106536304D01*
X105650500Y-103986304D01*
X120174500Y-103986304D01*
X120174500Y-104163695D01*
X120209103Y-104337658D01*
X120209106Y-104337667D01*
X120276983Y-104501540D01*
X120276990Y-104501553D01*
X120375535Y-104649034D01*
X120375538Y-104649038D01*
X120500961Y-104774461D01*
X120500965Y-104774464D01*
X120648446Y-104873009D01*
X120648459Y-104873016D01*
X120771363Y-104923923D01*
X120812334Y-104940894D01*
X120812336Y-104940894D01*
X120812341Y-104940896D01*
X120986304Y-104975499D01*
X120986307Y-104975500D01*
X120986309Y-104975500D01*
X121163693Y-104975500D01*
X121163694Y-104975499D01*
X121221682Y-104963964D01*
X121337658Y-104940896D01*
X121337661Y-104940894D01*
X121337666Y-104940894D01*
X121501547Y-104873013D01*
X121649035Y-104774464D01*
X121774464Y-104649035D01*
X121873013Y-104501547D01*
X121940894Y-104337666D01*
X121955608Y-104263695D01*
X121961057Y-104236304D01*
X130499500Y-104236304D01*
X130499500Y-104413695D01*
X130534103Y-104587658D01*
X130534106Y-104587667D01*
X130601983Y-104751540D01*
X130601990Y-104751553D01*
X130700535Y-104899034D01*
X130700538Y-104899038D01*
X130825961Y-105024461D01*
X130825965Y-105024464D01*
X130973446Y-105123009D01*
X130973459Y-105123016D01*
X131096363Y-105173923D01*
X131137334Y-105190894D01*
X131137336Y-105190894D01*
X131137341Y-105190896D01*
X131311304Y-105225499D01*
X131311307Y-105225500D01*
X131311309Y-105225500D01*
X131488693Y-105225500D01*
X131488694Y-105225499D01*
X131546682Y-105213964D01*
X131662658Y-105190896D01*
X131662661Y-105190894D01*
X131662666Y-105190894D01*
X131826547Y-105123013D01*
X131974035Y-105024464D01*
X132099464Y-104899035D01*
X132198013Y-104751547D01*
X132199054Y-104749035D01*
X132240474Y-104649035D01*
X132265894Y-104587666D01*
X132300500Y-104413691D01*
X132300500Y-104236309D01*
X132300500Y-104236306D01*
X132300499Y-104236304D01*
X132265896Y-104062341D01*
X132265893Y-104062332D01*
X132198016Y-103898459D01*
X132198009Y-103898446D01*
X132126421Y-103791308D01*
X132105543Y-103724631D01*
X132124027Y-103657251D01*
X132176006Y-103610560D01*
X132182062Y-103607859D01*
X132232089Y-103587138D01*
X132326541Y-103548016D01*
X132326544Y-103548014D01*
X132326547Y-103548013D01*
X132474035Y-103449464D01*
X132599464Y-103324035D01*
X132698013Y-103176547D01*
X132765894Y-103012666D01*
X132768411Y-103000015D01*
X132800499Y-102838695D01*
X132800500Y-102838693D01*
X132800500Y-102661306D01*
X132800499Y-102661304D01*
X132765896Y-102487341D01*
X132765893Y-102487332D01*
X132698016Y-102323459D01*
X132698009Y-102323446D01*
X132599464Y-102175965D01*
X132599461Y-102175961D01*
X132474038Y-102050538D01*
X132474034Y-102050535D01*
X132326553Y-101951990D01*
X132326540Y-101951983D01*
X132162667Y-101884106D01*
X132162658Y-101884103D01*
X131988694Y-101849500D01*
X131988691Y-101849500D01*
X131811309Y-101849500D01*
X131811306Y-101849500D01*
X131637341Y-101884103D01*
X131637332Y-101884106D01*
X131473459Y-101951983D01*
X131473446Y-101951990D01*
X131325965Y-102050535D01*
X131325961Y-102050538D01*
X131200538Y-102175961D01*
X131200535Y-102175965D01*
X131101990Y-102323446D01*
X131101983Y-102323459D01*
X131034106Y-102487332D01*
X131034103Y-102487341D01*
X130999500Y-102661304D01*
X130999500Y-102838695D01*
X131034103Y-103012658D01*
X131034106Y-103012667D01*
X131101983Y-103176540D01*
X131101990Y-103176553D01*
X131173578Y-103283691D01*
X131194456Y-103350368D01*
X131175972Y-103417749D01*
X131123993Y-103464439D01*
X131117929Y-103467143D01*
X130973455Y-103526985D01*
X130973446Y-103526990D01*
X130825965Y-103625535D01*
X130825961Y-103625538D01*
X130700538Y-103750961D01*
X130700535Y-103750965D01*
X130601990Y-103898446D01*
X130601983Y-103898459D01*
X130534106Y-104062332D01*
X130534103Y-104062341D01*
X130499500Y-104236304D01*
X121961057Y-104236304D01*
X121967080Y-104206025D01*
X121967080Y-104206024D01*
X121975499Y-104163695D01*
X121975500Y-104163693D01*
X121975500Y-103986306D01*
X121975499Y-103986304D01*
X121940896Y-103812341D01*
X121940893Y-103812332D01*
X121873016Y-103648459D01*
X121873009Y-103648446D01*
X121774464Y-103500965D01*
X121774461Y-103500961D01*
X121649038Y-103375538D01*
X121649034Y-103375535D01*
X121501553Y-103276990D01*
X121501540Y-103276983D01*
X121337667Y-103209106D01*
X121337658Y-103209103D01*
X121163694Y-103174500D01*
X121163691Y-103174500D01*
X120986309Y-103174500D01*
X120986306Y-103174500D01*
X120812341Y-103209103D01*
X120812332Y-103209106D01*
X120648459Y-103276983D01*
X120648446Y-103276990D01*
X120500965Y-103375535D01*
X120500961Y-103375538D01*
X120375538Y-103500961D01*
X120375535Y-103500965D01*
X120276990Y-103648446D01*
X120276983Y-103648459D01*
X120209106Y-103812332D01*
X120209103Y-103812341D01*
X120174500Y-103986304D01*
X105650500Y-103986304D01*
X105650500Y-101411304D01*
X115849500Y-101411304D01*
X115849500Y-101588695D01*
X115884103Y-101762658D01*
X115884106Y-101762667D01*
X115951983Y-101926540D01*
X115951990Y-101926553D01*
X116050535Y-102074034D01*
X116050538Y-102074038D01*
X116175961Y-102199461D01*
X116175965Y-102199464D01*
X116323446Y-102298009D01*
X116323459Y-102298016D01*
X116446363Y-102348923D01*
X116487334Y-102365894D01*
X116487336Y-102365894D01*
X116487341Y-102365896D01*
X116661304Y-102400499D01*
X116661307Y-102400500D01*
X116661309Y-102400500D01*
X116838693Y-102400500D01*
X116838694Y-102400499D01*
X116896682Y-102388964D01*
X117012658Y-102365896D01*
X117012661Y-102365894D01*
X117012666Y-102365894D01*
X117176547Y-102298013D01*
X117324035Y-102199464D01*
X117449464Y-102074035D01*
X117548013Y-101926547D01*
X117549298Y-101923446D01*
X117574476Y-101862658D01*
X117615894Y-101762666D01*
X117618414Y-101750000D01*
X117650499Y-101588695D01*
X117650500Y-101588693D01*
X117650500Y-101411306D01*
X117650499Y-101411304D01*
X117615896Y-101237341D01*
X117615893Y-101237332D01*
X117560115Y-101102669D01*
X117548016Y-101073459D01*
X117548009Y-101073446D01*
X117539896Y-101061304D01*
X141649500Y-101061304D01*
X141649500Y-101238695D01*
X141684103Y-101412658D01*
X141684106Y-101412667D01*
X141751983Y-101576540D01*
X141751990Y-101576553D01*
X141821853Y-101681109D01*
X141842731Y-101747786D01*
X141824247Y-101815166D01*
X141821853Y-101818891D01*
X141751990Y-101923446D01*
X141751983Y-101923459D01*
X141684106Y-102087332D01*
X141684103Y-102087341D01*
X141649500Y-102261304D01*
X141649500Y-102438695D01*
X141684103Y-102612658D01*
X141684106Y-102612667D01*
X141751983Y-102776540D01*
X141751990Y-102776553D01*
X141850535Y-102924034D01*
X141850538Y-102924038D01*
X141975961Y-103049461D01*
X141975965Y-103049464D01*
X142123446Y-103148009D01*
X142123459Y-103148016D01*
X142192355Y-103176553D01*
X142287334Y-103215894D01*
X142287336Y-103215894D01*
X142287341Y-103215896D01*
X142461304Y-103250499D01*
X142461307Y-103250500D01*
X142461309Y-103250500D01*
X142638693Y-103250500D01*
X142638694Y-103250499D01*
X142696682Y-103238964D01*
X142812658Y-103215896D01*
X142812661Y-103215894D01*
X142812666Y-103215894D01*
X142976547Y-103148013D01*
X143124035Y-103049464D01*
X143249464Y-102924035D01*
X143348013Y-102776547D01*
X143415894Y-102612666D01*
X143450500Y-102438691D01*
X143450500Y-102261309D01*
X143450500Y-102261306D01*
X143450499Y-102261304D01*
X143415896Y-102087341D01*
X143415893Y-102087332D01*
X143348016Y-101923459D01*
X143348012Y-101923452D01*
X143348008Y-101923446D01*
X143278145Y-101818888D01*
X143257268Y-101752215D01*
X143275752Y-101684834D01*
X143278118Y-101681150D01*
X143348013Y-101576547D01*
X143375037Y-101511304D01*
X146674500Y-101511304D01*
X146674500Y-101688695D01*
X146709103Y-101862658D01*
X146709106Y-101862667D01*
X146776983Y-102026540D01*
X146776990Y-102026553D01*
X146875535Y-102174034D01*
X146875538Y-102174038D01*
X147000961Y-102299461D01*
X147000965Y-102299464D01*
X147148446Y-102398009D01*
X147148459Y-102398016D01*
X147208869Y-102423038D01*
X147312334Y-102465894D01*
X147312336Y-102465894D01*
X147312341Y-102465896D01*
X147486304Y-102500499D01*
X147486307Y-102500500D01*
X147486309Y-102500500D01*
X147663693Y-102500500D01*
X147663694Y-102500499D01*
X147746154Y-102484097D01*
X147837658Y-102465896D01*
X147837661Y-102465894D01*
X147837666Y-102465894D01*
X148001547Y-102398013D01*
X148149035Y-102299464D01*
X148274464Y-102174035D01*
X148373013Y-102026547D01*
X148440894Y-101862666D01*
X148449602Y-101818892D01*
X148453383Y-101799882D01*
X148485768Y-101737971D01*
X148546483Y-101703397D01*
X148616253Y-101707136D01*
X148672925Y-101748003D01*
X148696617Y-101799882D01*
X148709103Y-101862658D01*
X148709106Y-101862667D01*
X148776983Y-102026540D01*
X148776990Y-102026553D01*
X148875535Y-102174034D01*
X148875538Y-102174038D01*
X149000961Y-102299461D01*
X149000965Y-102299464D01*
X149148446Y-102398009D01*
X149148459Y-102398016D01*
X149208869Y-102423038D01*
X149312334Y-102465894D01*
X149312336Y-102465894D01*
X149312341Y-102465896D01*
X149486304Y-102500499D01*
X149486307Y-102500500D01*
X149486309Y-102500500D01*
X149663693Y-102500500D01*
X149746154Y-102484097D01*
X149777458Y-102477870D01*
X149847050Y-102484097D01*
X149902227Y-102526960D01*
X149925472Y-102592849D01*
X149909405Y-102660846D01*
X149889332Y-102687168D01*
X149800535Y-102775965D01*
X149701990Y-102923446D01*
X149701983Y-102923459D01*
X149634106Y-103087332D01*
X149634103Y-103087341D01*
X149599500Y-103261304D01*
X149599500Y-103438695D01*
X149634103Y-103612658D01*
X149634106Y-103612667D01*
X149701983Y-103776540D01*
X149701990Y-103776553D01*
X149800535Y-103924034D01*
X149800538Y-103924038D01*
X149925961Y-104049461D01*
X149925965Y-104049464D01*
X150073446Y-104148009D01*
X150073459Y-104148016D01*
X150196363Y-104198923D01*
X150237334Y-104215894D01*
X150237336Y-104215894D01*
X150237341Y-104215896D01*
X150411304Y-104250499D01*
X150411307Y-104250500D01*
X150411309Y-104250500D01*
X150420112Y-104250500D01*
X150487151Y-104270185D01*
X150532906Y-104322989D01*
X150541729Y-104350309D01*
X150559103Y-104437658D01*
X150559106Y-104437667D01*
X150626983Y-104601540D01*
X150626990Y-104601553D01*
X150725535Y-104749034D01*
X150725538Y-104749038D01*
X150850961Y-104874461D01*
X150850965Y-104874464D01*
X150998446Y-104973009D01*
X150998459Y-104973016D01*
X151121363Y-105023923D01*
X151162334Y-105040894D01*
X151162336Y-105040894D01*
X151162341Y-105040896D01*
X151336304Y-105075499D01*
X151336307Y-105075500D01*
X151336309Y-105075500D01*
X151513693Y-105075500D01*
X151513694Y-105075499D01*
X151571682Y-105063964D01*
X151687658Y-105040896D01*
X151687661Y-105040894D01*
X151687666Y-105040894D01*
X151851547Y-104973013D01*
X151999035Y-104874464D01*
X152124464Y-104749035D01*
X152223013Y-104601547D01*
X152290894Y-104437666D01*
X152308271Y-104350309D01*
X152325499Y-104263695D01*
X152325500Y-104263693D01*
X152325500Y-104086306D01*
X152325499Y-104086304D01*
X152290896Y-103912341D01*
X152290893Y-103912332D01*
X152223016Y-103748459D01*
X152223009Y-103748446D01*
X152124464Y-103600965D01*
X152124461Y-103600961D01*
X151999038Y-103475538D01*
X151999034Y-103475535D01*
X151851553Y-103376990D01*
X151851540Y-103376983D01*
X151687667Y-103309106D01*
X151687658Y-103309103D01*
X151513694Y-103274500D01*
X151513691Y-103274500D01*
X151504888Y-103274500D01*
X151437849Y-103254815D01*
X151392094Y-103202011D01*
X151383271Y-103174691D01*
X151365896Y-103087341D01*
X151365893Y-103087332D01*
X151298016Y-102923459D01*
X151298009Y-102923446D01*
X151199464Y-102775965D01*
X151199461Y-102775961D01*
X151074038Y-102650538D01*
X151074034Y-102650535D01*
X150926553Y-102551990D01*
X150926540Y-102551983D01*
X150762667Y-102484106D01*
X150762658Y-102484103D01*
X150588694Y-102449500D01*
X150588691Y-102449500D01*
X150411309Y-102449500D01*
X150411304Y-102449500D01*
X150297540Y-102472129D01*
X150227948Y-102465902D01*
X150172771Y-102423038D01*
X150149527Y-102357149D01*
X150165595Y-102289152D01*
X150185664Y-102262834D01*
X150274464Y-102174035D01*
X150373013Y-102026547D01*
X150440894Y-101862666D01*
X150449602Y-101818892D01*
X150475499Y-101688695D01*
X150475500Y-101688693D01*
X150475500Y-101511306D01*
X150475499Y-101511304D01*
X150440896Y-101337341D01*
X150440893Y-101337332D01*
X150373016Y-101173459D01*
X150373009Y-101173446D01*
X150274464Y-101025965D01*
X150274461Y-101025961D01*
X150149038Y-100900538D01*
X150149034Y-100900535D01*
X150001553Y-100801990D01*
X150001540Y-100801983D01*
X149837667Y-100734106D01*
X149837658Y-100734103D01*
X149663694Y-100699500D01*
X149663691Y-100699500D01*
X149486309Y-100699500D01*
X149486306Y-100699500D01*
X149312341Y-100734103D01*
X149312332Y-100734106D01*
X149148459Y-100801983D01*
X149148446Y-100801990D01*
X149000965Y-100900535D01*
X149000961Y-100900538D01*
X148875538Y-101025961D01*
X148875535Y-101025965D01*
X148776990Y-101173446D01*
X148776983Y-101173459D01*
X148709106Y-101337332D01*
X148709104Y-101337340D01*
X148696617Y-101400118D01*
X148664232Y-101462028D01*
X148603516Y-101496603D01*
X148533747Y-101492863D01*
X148477075Y-101451996D01*
X148453383Y-101400118D01*
X148440895Y-101337340D01*
X148440894Y-101337334D01*
X148399473Y-101237334D01*
X148373016Y-101173459D01*
X148373009Y-101173446D01*
X148274464Y-101025965D01*
X148274461Y-101025961D01*
X148149038Y-100900538D01*
X148149034Y-100900535D01*
X148001553Y-100801990D01*
X148001540Y-100801983D01*
X147837667Y-100734106D01*
X147837658Y-100734103D01*
X147663694Y-100699500D01*
X147663691Y-100699500D01*
X147486309Y-100699500D01*
X147486306Y-100699500D01*
X147312341Y-100734103D01*
X147312332Y-100734106D01*
X147148459Y-100801983D01*
X147148446Y-100801990D01*
X147000965Y-100900535D01*
X147000961Y-100900538D01*
X146875538Y-101025961D01*
X146875535Y-101025965D01*
X146776990Y-101173446D01*
X146776983Y-101173459D01*
X146709106Y-101337332D01*
X146709103Y-101337341D01*
X146674500Y-101511304D01*
X143375037Y-101511304D01*
X143415894Y-101412666D01*
X143430878Y-101337340D01*
X143450499Y-101238695D01*
X143450500Y-101238693D01*
X143450500Y-101061306D01*
X143450499Y-101061304D01*
X143415896Y-100887341D01*
X143415893Y-100887332D01*
X143348016Y-100723459D01*
X143348009Y-100723446D01*
X143249464Y-100575965D01*
X143249461Y-100575961D01*
X143124038Y-100450538D01*
X143124034Y-100450535D01*
X142976553Y-100351990D01*
X142976540Y-100351983D01*
X142812667Y-100284106D01*
X142812658Y-100284103D01*
X142638694Y-100249500D01*
X142638691Y-100249500D01*
X142461309Y-100249500D01*
X142461306Y-100249500D01*
X142287341Y-100284103D01*
X142287332Y-100284106D01*
X142123459Y-100351983D01*
X142123446Y-100351990D01*
X141975965Y-100450535D01*
X141975961Y-100450538D01*
X141850538Y-100575961D01*
X141850535Y-100575965D01*
X141751990Y-100723446D01*
X141751983Y-100723459D01*
X141684106Y-100887332D01*
X141684103Y-100887341D01*
X141649500Y-101061304D01*
X117539896Y-101061304D01*
X117449464Y-100925965D01*
X117449461Y-100925961D01*
X117324038Y-100800538D01*
X117324034Y-100800535D01*
X117176553Y-100701990D01*
X117176540Y-100701983D01*
X117012667Y-100634106D01*
X117012658Y-100634103D01*
X116838694Y-100599500D01*
X116838691Y-100599500D01*
X116661309Y-100599500D01*
X116661306Y-100599500D01*
X116487341Y-100634103D01*
X116487332Y-100634106D01*
X116323459Y-100701983D01*
X116323446Y-100701990D01*
X116175965Y-100800535D01*
X116175961Y-100800538D01*
X116050538Y-100925961D01*
X116050535Y-100925965D01*
X115951990Y-101073446D01*
X115951983Y-101073459D01*
X115884106Y-101237332D01*
X115884103Y-101237341D01*
X115849500Y-101411304D01*
X105650500Y-101411304D01*
X105650500Y-97686304D01*
X112174500Y-97686304D01*
X112174500Y-97863695D01*
X112209103Y-98037658D01*
X112209106Y-98037667D01*
X112276983Y-98201540D01*
X112276990Y-98201553D01*
X112375535Y-98349034D01*
X112375538Y-98349038D01*
X112500961Y-98474461D01*
X112500965Y-98474464D01*
X112648446Y-98573009D01*
X112648459Y-98573016D01*
X112771363Y-98623923D01*
X112812334Y-98640894D01*
X112812336Y-98640894D01*
X112812341Y-98640896D01*
X112986304Y-98675499D01*
X112986307Y-98675500D01*
X112986309Y-98675500D01*
X113163693Y-98675500D01*
X113163694Y-98675499D01*
X113221682Y-98663964D01*
X113337658Y-98640896D01*
X113337661Y-98640894D01*
X113337666Y-98640894D01*
X113501547Y-98573013D01*
X113649035Y-98474464D01*
X113774464Y-98349035D01*
X113873013Y-98201547D01*
X113940894Y-98037666D01*
X113940961Y-98037332D01*
X113973558Y-97873453D01*
X113975500Y-97863691D01*
X113975500Y-97686309D01*
X113975500Y-97686306D01*
X113975499Y-97686304D01*
X113940896Y-97512341D01*
X113940893Y-97512332D01*
X113936606Y-97501983D01*
X113894157Y-97399500D01*
X113873016Y-97348459D01*
X113873014Y-97348456D01*
X113873013Y-97348453D01*
X113831486Y-97286304D01*
X115599500Y-97286304D01*
X115599500Y-97463695D01*
X115634103Y-97637658D01*
X115634106Y-97637667D01*
X115701983Y-97801540D01*
X115701990Y-97801553D01*
X115800535Y-97949034D01*
X115800538Y-97949038D01*
X115925961Y-98074461D01*
X115925965Y-98074464D01*
X116073446Y-98173009D01*
X116073459Y-98173016D01*
X116196363Y-98223923D01*
X116237334Y-98240894D01*
X116237336Y-98240894D01*
X116237341Y-98240896D01*
X116411304Y-98275499D01*
X116411307Y-98275500D01*
X116411309Y-98275500D01*
X116588693Y-98275500D01*
X116588694Y-98275499D01*
X116646682Y-98263964D01*
X116762658Y-98240896D01*
X116762661Y-98240894D01*
X116762666Y-98240894D01*
X116926547Y-98173013D01*
X117056109Y-98086442D01*
X117122786Y-98065564D01*
X117190166Y-98084048D01*
X117193891Y-98086442D01*
X117323453Y-98173013D01*
X117323455Y-98173014D01*
X117323459Y-98173016D01*
X117446363Y-98223923D01*
X117487334Y-98240894D01*
X117487336Y-98240894D01*
X117487341Y-98240896D01*
X117661304Y-98275499D01*
X117661307Y-98275500D01*
X117661309Y-98275500D01*
X117838693Y-98275500D01*
X117838694Y-98275499D01*
X117896682Y-98263964D01*
X118012658Y-98240896D01*
X118012661Y-98240894D01*
X118012666Y-98240894D01*
X118084103Y-98211304D01*
X149799500Y-98211304D01*
X149799500Y-98388695D01*
X149834103Y-98562658D01*
X149834106Y-98562667D01*
X149901983Y-98726540D01*
X149901990Y-98726553D01*
X150000535Y-98874034D01*
X150000538Y-98874038D01*
X150125961Y-98999461D01*
X150125965Y-98999464D01*
X150273446Y-99098009D01*
X150273459Y-99098016D01*
X150396363Y-99148923D01*
X150437334Y-99165894D01*
X150437336Y-99165894D01*
X150437341Y-99165896D01*
X150611304Y-99200499D01*
X150611307Y-99200500D01*
X150611309Y-99200500D01*
X150788693Y-99200500D01*
X150788694Y-99200499D01*
X150846682Y-99188964D01*
X150962658Y-99165896D01*
X150962661Y-99165894D01*
X150962666Y-99165894D01*
X151126547Y-99098013D01*
X151274035Y-98999464D01*
X151399464Y-98874035D01*
X151498013Y-98726547D01*
X151565894Y-98562666D01*
X151600500Y-98388691D01*
X151600500Y-98388549D01*
X153799500Y-98388549D01*
X153799500Y-98611450D01*
X153799501Y-98611466D01*
X153828594Y-98832452D01*
X153828595Y-98832457D01*
X153828596Y-98832463D01*
X153839736Y-98874038D01*
X153886290Y-99047780D01*
X153886293Y-99047790D01*
X153949548Y-99200500D01*
X153971595Y-99253726D01*
X154083052Y-99446774D01*
X154083057Y-99446780D01*
X154083058Y-99446782D01*
X154218751Y-99623622D01*
X154218757Y-99623629D01*
X154376370Y-99781242D01*
X154376376Y-99781247D01*
X154553226Y-99916948D01*
X154746274Y-100028405D01*
X154746277Y-100028406D01*
X154746282Y-100028409D01*
X154824817Y-100060939D01*
X154879221Y-100104780D01*
X154901286Y-100171074D01*
X154884007Y-100238773D01*
X154832870Y-100286384D01*
X154777365Y-100299500D01*
X154499984Y-100299500D01*
X154397204Y-100310000D01*
X154397203Y-100310001D01*
X154230664Y-100365186D01*
X154230662Y-100365187D01*
X154081348Y-100457286D01*
X154081344Y-100457289D01*
X153957289Y-100581344D01*
X153957286Y-100581348D01*
X153865187Y-100730662D01*
X153865186Y-100730664D01*
X153810001Y-100897203D01*
X153810000Y-100897204D01*
X153799500Y-100999984D01*
X153799500Y-103000015D01*
X153810000Y-103102795D01*
X153810001Y-103102796D01*
X153865186Y-103269335D01*
X153865187Y-103269337D01*
X153957286Y-103418651D01*
X153957289Y-103418655D01*
X154081344Y-103542710D01*
X154081348Y-103542713D01*
X154230662Y-103634812D01*
X154230664Y-103634813D01*
X154230666Y-103634814D01*
X154397203Y-103689999D01*
X154499992Y-103700500D01*
X154499997Y-103700500D01*
X156500003Y-103700500D01*
X156500008Y-103700500D01*
X156602797Y-103689999D01*
X156769334Y-103634814D01*
X156918655Y-103542711D01*
X157042711Y-103418655D01*
X157134814Y-103269334D01*
X157189999Y-103102797D01*
X157200500Y-103000008D01*
X157200500Y-100999992D01*
X157189999Y-100897203D01*
X157134814Y-100730666D01*
X157117126Y-100701990D01*
X157042713Y-100581348D01*
X157042710Y-100581344D01*
X156918655Y-100457289D01*
X156918651Y-100457286D01*
X156769337Y-100365187D01*
X156769335Y-100365186D01*
X156686065Y-100337593D01*
X156602797Y-100310001D01*
X156602795Y-100310000D01*
X156500015Y-100299500D01*
X156500008Y-100299500D01*
X156222635Y-100299500D01*
X156155596Y-100279815D01*
X156109841Y-100227011D01*
X156099897Y-100157853D01*
X156128922Y-100094297D01*
X156175183Y-100060939D01*
X156253717Y-100028409D01*
X156253718Y-100028407D01*
X156253726Y-100028405D01*
X156446774Y-99916948D01*
X156623624Y-99781247D01*
X156781247Y-99623624D01*
X156916948Y-99446774D01*
X157028405Y-99253726D01*
X157113710Y-99047781D01*
X157171404Y-98832463D01*
X157200500Y-98611457D01*
X157200500Y-98388543D01*
X157171404Y-98167537D01*
X157113710Y-97952219D01*
X157112392Y-97949038D01*
X157028406Y-97746277D01*
X157028405Y-97746274D01*
X156916948Y-97553226D01*
X156781247Y-97376376D01*
X156781242Y-97376370D01*
X156623629Y-97218757D01*
X156623622Y-97218751D01*
X156446782Y-97083058D01*
X156446780Y-97083057D01*
X156446774Y-97083052D01*
X156253726Y-96971595D01*
X156253722Y-96971593D01*
X156047790Y-96886293D01*
X156047783Y-96886291D01*
X156047781Y-96886290D01*
X155832463Y-96828596D01*
X155832457Y-96828595D01*
X155832452Y-96828594D01*
X155611466Y-96799501D01*
X155611463Y-96799500D01*
X155611457Y-96799500D01*
X155388543Y-96799500D01*
X155388537Y-96799500D01*
X155388533Y-96799501D01*
X155167547Y-96828594D01*
X155167540Y-96828595D01*
X155167537Y-96828596D01*
X155085790Y-96850500D01*
X154952219Y-96886290D01*
X154952209Y-96886293D01*
X154746277Y-96971593D01*
X154746273Y-96971595D01*
X154553226Y-97083052D01*
X154553217Y-97083058D01*
X154376377Y-97218751D01*
X154376370Y-97218757D01*
X154218757Y-97376370D01*
X154218751Y-97376377D01*
X154083058Y-97553217D01*
X154083052Y-97553226D01*
X153971595Y-97746273D01*
X153971593Y-97746277D01*
X153886293Y-97952209D01*
X153886290Y-97952219D01*
X153855920Y-98065564D01*
X153828597Y-98167534D01*
X153828594Y-98167547D01*
X153799501Y-98388533D01*
X153799500Y-98388549D01*
X151600500Y-98388549D01*
X151600500Y-98211309D01*
X151600500Y-98211306D01*
X151600499Y-98211304D01*
X151565896Y-98037341D01*
X151565893Y-98037332D01*
X151498016Y-97873459D01*
X151498009Y-97873446D01*
X151399464Y-97725965D01*
X151399461Y-97725961D01*
X151274038Y-97600538D01*
X151274034Y-97600535D01*
X151126553Y-97501990D01*
X151126540Y-97501983D01*
X150962667Y-97434106D01*
X150962658Y-97434103D01*
X150788694Y-97399500D01*
X150788691Y-97399500D01*
X150611309Y-97399500D01*
X150611306Y-97399500D01*
X150437341Y-97434103D01*
X150437332Y-97434106D01*
X150273459Y-97501983D01*
X150273446Y-97501990D01*
X150125965Y-97600535D01*
X150125961Y-97600538D01*
X150000538Y-97725961D01*
X150000535Y-97725965D01*
X149901990Y-97873446D01*
X149901983Y-97873459D01*
X149834106Y-98037332D01*
X149834103Y-98037341D01*
X149799500Y-98211304D01*
X118084103Y-98211304D01*
X118176547Y-98173013D01*
X118324035Y-98074464D01*
X118449464Y-97949035D01*
X118548013Y-97801547D01*
X118615894Y-97637666D01*
X118623280Y-97600538D01*
X118650499Y-97463695D01*
X118650500Y-97463693D01*
X118650500Y-97286306D01*
X118650499Y-97286304D01*
X118615896Y-97112341D01*
X118615893Y-97112332D01*
X118548016Y-96948459D01*
X118548009Y-96948446D01*
X118449464Y-96800965D01*
X118449461Y-96800961D01*
X118324038Y-96675538D01*
X118324034Y-96675535D01*
X118176553Y-96576990D01*
X118176540Y-96576983D01*
X118012667Y-96509106D01*
X118012658Y-96509103D01*
X117838694Y-96474500D01*
X117838691Y-96474500D01*
X117661309Y-96474500D01*
X117661306Y-96474500D01*
X117487341Y-96509103D01*
X117487332Y-96509106D01*
X117323459Y-96576983D01*
X117323446Y-96576990D01*
X117193891Y-96663557D01*
X117127213Y-96684435D01*
X117059833Y-96665950D01*
X117056109Y-96663557D01*
X116926553Y-96576990D01*
X116926540Y-96576983D01*
X116762667Y-96509106D01*
X116762658Y-96509103D01*
X116588694Y-96474500D01*
X116588691Y-96474500D01*
X116411309Y-96474500D01*
X116411306Y-96474500D01*
X116237341Y-96509103D01*
X116237332Y-96509106D01*
X116073459Y-96576983D01*
X116073446Y-96576990D01*
X115925965Y-96675535D01*
X115925961Y-96675538D01*
X115800538Y-96800961D01*
X115800535Y-96800965D01*
X115701990Y-96948446D01*
X115701983Y-96948459D01*
X115634106Y-97112332D01*
X115634103Y-97112341D01*
X115599500Y-97286304D01*
X113831486Y-97286304D01*
X113774464Y-97200965D01*
X113774461Y-97200961D01*
X113649038Y-97075538D01*
X113649034Y-97075535D01*
X113501553Y-96976990D01*
X113501540Y-96976983D01*
X113337667Y-96909106D01*
X113337658Y-96909103D01*
X113163694Y-96874500D01*
X113163691Y-96874500D01*
X112986309Y-96874500D01*
X112986306Y-96874500D01*
X112812341Y-96909103D01*
X112812332Y-96909106D01*
X112648459Y-96976983D01*
X112648446Y-96976990D01*
X112500965Y-97075535D01*
X112500961Y-97075538D01*
X112375538Y-97200961D01*
X112375535Y-97200965D01*
X112276990Y-97348446D01*
X112276983Y-97348459D01*
X112209106Y-97512332D01*
X112209103Y-97512341D01*
X112174500Y-97686304D01*
X105650500Y-97686304D01*
X105650500Y-95761304D01*
X111099500Y-95761304D01*
X111099500Y-95938695D01*
X111134103Y-96112658D01*
X111134106Y-96112667D01*
X111201983Y-96276540D01*
X111201990Y-96276553D01*
X111300535Y-96424034D01*
X111300538Y-96424038D01*
X111425961Y-96549461D01*
X111425965Y-96549464D01*
X111573446Y-96648009D01*
X111573459Y-96648016D01*
X111661384Y-96684435D01*
X111737334Y-96715894D01*
X111737336Y-96715894D01*
X111737341Y-96715896D01*
X111911304Y-96750499D01*
X111911307Y-96750500D01*
X111911309Y-96750500D01*
X112088693Y-96750500D01*
X112088694Y-96750499D01*
X112146682Y-96738964D01*
X112262658Y-96715896D01*
X112262661Y-96715894D01*
X112262666Y-96715894D01*
X112426547Y-96648013D01*
X112574035Y-96549464D01*
X112699464Y-96424035D01*
X112798013Y-96276547D01*
X112865894Y-96112666D01*
X112900500Y-95938691D01*
X112900500Y-95861304D01*
X149799500Y-95861304D01*
X149799500Y-96038695D01*
X149834103Y-96212658D01*
X149834106Y-96212667D01*
X149901983Y-96376540D01*
X149901990Y-96376553D01*
X150000535Y-96524034D01*
X150000538Y-96524038D01*
X150125961Y-96649461D01*
X150125965Y-96649464D01*
X150273446Y-96748009D01*
X150273459Y-96748016D01*
X150396363Y-96798923D01*
X150437334Y-96815894D01*
X150437336Y-96815894D01*
X150437341Y-96815896D01*
X150611304Y-96850499D01*
X150611307Y-96850500D01*
X150611309Y-96850500D01*
X150788693Y-96850500D01*
X150788694Y-96850499D01*
X150846682Y-96838964D01*
X150962658Y-96815896D01*
X150962661Y-96815894D01*
X150962666Y-96815894D01*
X151126547Y-96748013D01*
X151274035Y-96649464D01*
X151399464Y-96524035D01*
X151498013Y-96376547D01*
X151565894Y-96212666D01*
X151600500Y-96038691D01*
X151600500Y-95861309D01*
X151600500Y-95861306D01*
X151600499Y-95861304D01*
X151565896Y-95687341D01*
X151565893Y-95687332D01*
X151498016Y-95523459D01*
X151498009Y-95523446D01*
X151399464Y-95375965D01*
X151399461Y-95375961D01*
X151274038Y-95250538D01*
X151274034Y-95250535D01*
X151126553Y-95151990D01*
X151126540Y-95151983D01*
X150962667Y-95084106D01*
X150962658Y-95084103D01*
X150788694Y-95049500D01*
X150788691Y-95049500D01*
X150611309Y-95049500D01*
X150611306Y-95049500D01*
X150437341Y-95084103D01*
X150437332Y-95084106D01*
X150273459Y-95151983D01*
X150273446Y-95151990D01*
X150125965Y-95250535D01*
X150125961Y-95250538D01*
X150000538Y-95375961D01*
X150000535Y-95375965D01*
X149901990Y-95523446D01*
X149901983Y-95523459D01*
X149834106Y-95687332D01*
X149834103Y-95687341D01*
X149799500Y-95861304D01*
X112900500Y-95861304D01*
X112900500Y-95761309D01*
X112900500Y-95761306D01*
X112900499Y-95761304D01*
X112865896Y-95587341D01*
X112865893Y-95587332D01*
X112798016Y-95423459D01*
X112798009Y-95423446D01*
X112699464Y-95275965D01*
X112699461Y-95275961D01*
X112574038Y-95150538D01*
X112574034Y-95150535D01*
X112426553Y-95051990D01*
X112426540Y-95051983D01*
X112262667Y-94984106D01*
X112262658Y-94984103D01*
X112088694Y-94949500D01*
X112088691Y-94949500D01*
X111911309Y-94949500D01*
X111911306Y-94949500D01*
X111737341Y-94984103D01*
X111737332Y-94984106D01*
X111573459Y-95051983D01*
X111573446Y-95051990D01*
X111425965Y-95150535D01*
X111425961Y-95150538D01*
X111300538Y-95275961D01*
X111300535Y-95275965D01*
X111201990Y-95423446D01*
X111201983Y-95423459D01*
X111134106Y-95587332D01*
X111134103Y-95587341D01*
X111099500Y-95761304D01*
X105650500Y-95761304D01*
X105650500Y-91636304D01*
X114524500Y-91636304D01*
X114524500Y-91813695D01*
X114559103Y-91987658D01*
X114559106Y-91987667D01*
X114626983Y-92151540D01*
X114626990Y-92151553D01*
X114725535Y-92299034D01*
X114725538Y-92299038D01*
X114850961Y-92424461D01*
X114850965Y-92424464D01*
X114998446Y-92523009D01*
X114998459Y-92523016D01*
X115068712Y-92552115D01*
X115162334Y-92590894D01*
X115162336Y-92590894D01*
X115162341Y-92590896D01*
X115336304Y-92625499D01*
X115336307Y-92625500D01*
X115336309Y-92625500D01*
X115513693Y-92625500D01*
X115513694Y-92625499D01*
X115571682Y-92613964D01*
X115687658Y-92590896D01*
X115687661Y-92590894D01*
X115687666Y-92590894D01*
X115851547Y-92523013D01*
X115999035Y-92424464D01*
X116098104Y-92325394D01*
X116159425Y-92291911D01*
X116229117Y-92296895D01*
X116285051Y-92338766D01*
X116288886Y-92344185D01*
X116325538Y-92399038D01*
X116450961Y-92524461D01*
X116455673Y-92528328D01*
X116454261Y-92530047D01*
X116492672Y-92575997D01*
X116501388Y-92645321D01*
X116471240Y-92708352D01*
X116411801Y-92745078D01*
X116378982Y-92749500D01*
X116211306Y-92749500D01*
X116037341Y-92784103D01*
X116037332Y-92784106D01*
X115873459Y-92851983D01*
X115873446Y-92851990D01*
X115725965Y-92950535D01*
X115725961Y-92950538D01*
X115600538Y-93075961D01*
X115600535Y-93075965D01*
X115501990Y-93223446D01*
X115501983Y-93223459D01*
X115434106Y-93387332D01*
X115434103Y-93387341D01*
X115399500Y-93561304D01*
X115399500Y-93738695D01*
X115434103Y-93912658D01*
X115434106Y-93912667D01*
X115501983Y-94076540D01*
X115501990Y-94076553D01*
X115600535Y-94224034D01*
X115600538Y-94224038D01*
X115725961Y-94349461D01*
X115725965Y-94349464D01*
X115873446Y-94448009D01*
X115873459Y-94448016D01*
X115996363Y-94498923D01*
X116037334Y-94515894D01*
X116037336Y-94515894D01*
X116037341Y-94515896D01*
X116211304Y-94550499D01*
X116211307Y-94550500D01*
X116211309Y-94550500D01*
X116388693Y-94550500D01*
X116388694Y-94550499D01*
X116446682Y-94538964D01*
X116562658Y-94515896D01*
X116562661Y-94515894D01*
X116562666Y-94515894D01*
X116726547Y-94448013D01*
X116874035Y-94349464D01*
X116999464Y-94224035D01*
X117098013Y-94076547D01*
X117165894Y-93912666D01*
X117200500Y-93738691D01*
X117200500Y-93561309D01*
X117200500Y-93561306D01*
X117200499Y-93561304D01*
X117165896Y-93387341D01*
X117165893Y-93387332D01*
X117098016Y-93223459D01*
X117098009Y-93223446D01*
X116999464Y-93075965D01*
X116999461Y-93075961D01*
X116874038Y-92950538D01*
X116869327Y-92946672D01*
X116870738Y-92944952D01*
X116832328Y-92899003D01*
X116823612Y-92829679D01*
X116853760Y-92766648D01*
X116913199Y-92729922D01*
X116946018Y-92725500D01*
X117113693Y-92725500D01*
X117113694Y-92725499D01*
X117171682Y-92713964D01*
X117287658Y-92690896D01*
X117287661Y-92690894D01*
X117287666Y-92690894D01*
X117359103Y-92661304D01*
X126599500Y-92661304D01*
X126599500Y-92838695D01*
X126634103Y-93012658D01*
X126634106Y-93012667D01*
X126701983Y-93176540D01*
X126701990Y-93176553D01*
X126800535Y-93324034D01*
X126800538Y-93324038D01*
X126925961Y-93449461D01*
X126925965Y-93449464D01*
X127073446Y-93548009D01*
X127073459Y-93548016D01*
X127196363Y-93598923D01*
X127237334Y-93615894D01*
X127237336Y-93615894D01*
X127237341Y-93615896D01*
X127411304Y-93650499D01*
X127411307Y-93650500D01*
X127411309Y-93650500D01*
X127588693Y-93650500D01*
X127588694Y-93650499D01*
X127646682Y-93638964D01*
X127762658Y-93615896D01*
X127762661Y-93615894D01*
X127762666Y-93615894D01*
X127926547Y-93548013D01*
X128074035Y-93449464D01*
X128199464Y-93324035D01*
X128298013Y-93176547D01*
X128365894Y-93012666D01*
X128400500Y-92838691D01*
X128400500Y-92661309D01*
X128400500Y-92661306D01*
X128400499Y-92661304D01*
X128365896Y-92487341D01*
X128365893Y-92487332D01*
X128298016Y-92323459D01*
X128298009Y-92323446D01*
X128199464Y-92175965D01*
X128199461Y-92175961D01*
X128074038Y-92050538D01*
X128074034Y-92050535D01*
X127926553Y-91951990D01*
X127926540Y-91951983D01*
X127762667Y-91884106D01*
X127762658Y-91884103D01*
X127588694Y-91849500D01*
X127588691Y-91849500D01*
X127411309Y-91849500D01*
X127411306Y-91849500D01*
X127237341Y-91884103D01*
X127237332Y-91884106D01*
X127073459Y-91951983D01*
X127073446Y-91951990D01*
X126925965Y-92050535D01*
X126925961Y-92050538D01*
X126800538Y-92175961D01*
X126800535Y-92175965D01*
X126701990Y-92323446D01*
X126701983Y-92323459D01*
X126634106Y-92487332D01*
X126634103Y-92487341D01*
X126599500Y-92661304D01*
X117359103Y-92661304D01*
X117451547Y-92623013D01*
X117599035Y-92524464D01*
X117724464Y-92399035D01*
X117823013Y-92251547D01*
X117890894Y-92087666D01*
X117898280Y-92050538D01*
X117925499Y-91913695D01*
X117925500Y-91913693D01*
X117925500Y-91736306D01*
X117925499Y-91736304D01*
X117890896Y-91562341D01*
X117890893Y-91562332D01*
X117823016Y-91398459D01*
X117823009Y-91398446D01*
X117724464Y-91250965D01*
X117724461Y-91250961D01*
X117599038Y-91125538D01*
X117599034Y-91125535D01*
X117451553Y-91026990D01*
X117451540Y-91026983D01*
X117287667Y-90959106D01*
X117287658Y-90959103D01*
X117113694Y-90924500D01*
X117113691Y-90924500D01*
X116936309Y-90924500D01*
X116936306Y-90924500D01*
X116762341Y-90959103D01*
X116762332Y-90959106D01*
X116598459Y-91026983D01*
X116598446Y-91026990D01*
X116450965Y-91125535D01*
X116351896Y-91224604D01*
X116290573Y-91258088D01*
X116220881Y-91253104D01*
X116164948Y-91211232D01*
X116161113Y-91205813D01*
X116124464Y-91150965D01*
X116124461Y-91150961D01*
X115999038Y-91025538D01*
X115999034Y-91025535D01*
X115851553Y-90926990D01*
X115851540Y-90926983D01*
X115687667Y-90859106D01*
X115687658Y-90859103D01*
X115513694Y-90824500D01*
X115513691Y-90824500D01*
X115336309Y-90824500D01*
X115336306Y-90824500D01*
X115162341Y-90859103D01*
X115162332Y-90859106D01*
X114998459Y-90926983D01*
X114998446Y-90926990D01*
X114850965Y-91025535D01*
X114850961Y-91025538D01*
X114725538Y-91150961D01*
X114725535Y-91150965D01*
X114626990Y-91298446D01*
X114626983Y-91298459D01*
X114559106Y-91462332D01*
X114559103Y-91462341D01*
X114524500Y-91636304D01*
X105650500Y-91636304D01*
X105650500Y-88661304D01*
X109519500Y-88661304D01*
X109519500Y-88838695D01*
X109554103Y-89012658D01*
X109554106Y-89012667D01*
X109621983Y-89176540D01*
X109621990Y-89176553D01*
X109720535Y-89324034D01*
X109720538Y-89324038D01*
X109845961Y-89449461D01*
X109845965Y-89449464D01*
X109993446Y-89548009D01*
X109993459Y-89548016D01*
X110116363Y-89598923D01*
X110157334Y-89615894D01*
X110157336Y-89615894D01*
X110157341Y-89615896D01*
X110331304Y-89650499D01*
X110331307Y-89650500D01*
X110331309Y-89650500D01*
X110508693Y-89650500D01*
X110508694Y-89650499D01*
X110566682Y-89638964D01*
X110682658Y-89615896D01*
X110682661Y-89615894D01*
X110682666Y-89615894D01*
X110836953Y-89551987D01*
X110846540Y-89548016D01*
X110846540Y-89548015D01*
X110846547Y-89548013D01*
X110994035Y-89449464D01*
X111119464Y-89324035D01*
X111218013Y-89176547D01*
X111285894Y-89012666D01*
X111285896Y-89012658D01*
X111291138Y-88986304D01*
X115974500Y-88986304D01*
X115974500Y-89163695D01*
X116009103Y-89337658D01*
X116009106Y-89337667D01*
X116076983Y-89501540D01*
X116076990Y-89501553D01*
X116175535Y-89649034D01*
X116175538Y-89649038D01*
X116300961Y-89774461D01*
X116300965Y-89774464D01*
X116448446Y-89873009D01*
X116448459Y-89873016D01*
X116570210Y-89923446D01*
X116612334Y-89940894D01*
X116612336Y-89940894D01*
X116612341Y-89940896D01*
X116786304Y-89975499D01*
X116786307Y-89975500D01*
X116786309Y-89975500D01*
X116963693Y-89975500D01*
X116963694Y-89975499D01*
X117023058Y-89963691D01*
X117137658Y-89940896D01*
X117137661Y-89940894D01*
X117137666Y-89940894D01*
X117301547Y-89873013D01*
X117449035Y-89774464D01*
X117574464Y-89649035D01*
X117673013Y-89501547D01*
X117740894Y-89337666D01*
X117743606Y-89324035D01*
X117763964Y-89221682D01*
X117775500Y-89163691D01*
X117775500Y-88986309D01*
X117775500Y-88986306D01*
X117775499Y-88986304D01*
X122024500Y-88986304D01*
X122024500Y-89163695D01*
X122059103Y-89337658D01*
X122059106Y-89337667D01*
X122126983Y-89501540D01*
X122126990Y-89501553D01*
X122225535Y-89649034D01*
X122225538Y-89649038D01*
X122350961Y-89774461D01*
X122350965Y-89774464D01*
X122498446Y-89873009D01*
X122498459Y-89873016D01*
X122620210Y-89923446D01*
X122662334Y-89940894D01*
X122662336Y-89940894D01*
X122662341Y-89940896D01*
X122836304Y-89975499D01*
X122836307Y-89975500D01*
X122836309Y-89975500D01*
X123013693Y-89975500D01*
X123013694Y-89975499D01*
X123073058Y-89963691D01*
X123187658Y-89940896D01*
X123187661Y-89940894D01*
X123187666Y-89940894D01*
X123351547Y-89873013D01*
X123481315Y-89786304D01*
X130599500Y-89786304D01*
X130599500Y-89963695D01*
X130634103Y-90137658D01*
X130634106Y-90137667D01*
X130701983Y-90301540D01*
X130701990Y-90301553D01*
X130800535Y-90449034D01*
X130800538Y-90449038D01*
X130925961Y-90574461D01*
X130925965Y-90574464D01*
X131073446Y-90673009D01*
X131073459Y-90673016D01*
X131196363Y-90723923D01*
X131237334Y-90740894D01*
X131237336Y-90740894D01*
X131237341Y-90740896D01*
X131411304Y-90775499D01*
X131411307Y-90775500D01*
X131411309Y-90775500D01*
X131588693Y-90775500D01*
X131588694Y-90775499D01*
X131646682Y-90763964D01*
X131762658Y-90740896D01*
X131762661Y-90740894D01*
X131762666Y-90740894D01*
X131926547Y-90673013D01*
X132074035Y-90574464D01*
X132162284Y-90486214D01*
X132223605Y-90452731D01*
X132293297Y-90457715D01*
X132349231Y-90499586D01*
X132371581Y-90549704D01*
X132384104Y-90612661D01*
X132384106Y-90612667D01*
X132451983Y-90776540D01*
X132451990Y-90776553D01*
X132550535Y-90924034D01*
X132550538Y-90924038D01*
X132675961Y-91049461D01*
X132675965Y-91049464D01*
X132823446Y-91148009D01*
X132823459Y-91148016D01*
X132946363Y-91198923D01*
X132987334Y-91215894D01*
X132987336Y-91215894D01*
X132987341Y-91215896D01*
X133161304Y-91250499D01*
X133161307Y-91250500D01*
X133161309Y-91250500D01*
X133338693Y-91250500D01*
X133338694Y-91250499D01*
X133396682Y-91238964D01*
X133512658Y-91215896D01*
X133512661Y-91215894D01*
X133512666Y-91215894D01*
X133676547Y-91148013D01*
X133824035Y-91049464D01*
X133949464Y-90924035D01*
X134048013Y-90776547D01*
X134062781Y-90740893D01*
X134089503Y-90676379D01*
X157049500Y-90676379D01*
X157049500Y-90863620D01*
X157086025Y-91047243D01*
X157086027Y-91047251D01*
X157157676Y-91220228D01*
X157157681Y-91220237D01*
X157261697Y-91375907D01*
X157261700Y-91375911D01*
X157394088Y-91508299D01*
X157394092Y-91508302D01*
X157549762Y-91612318D01*
X157549768Y-91612321D01*
X157549769Y-91612322D01*
X157722749Y-91683973D01*
X157906379Y-91720499D01*
X157906383Y-91720500D01*
X157906384Y-91720500D01*
X158993617Y-91720500D01*
X158993618Y-91720499D01*
X159177251Y-91683973D01*
X159350231Y-91612322D01*
X159505908Y-91508302D01*
X159638302Y-91375908D01*
X159742322Y-91220231D01*
X159813973Y-91047251D01*
X159850500Y-90863616D01*
X159850500Y-90676384D01*
X159813973Y-90492749D01*
X159742322Y-90319769D01*
X159742321Y-90319768D01*
X159742318Y-90319762D01*
X159638302Y-90164092D01*
X159638299Y-90164088D01*
X159505911Y-90031700D01*
X159505907Y-90031697D01*
X159350237Y-89927681D01*
X159350228Y-89927676D01*
X159177251Y-89856027D01*
X159177243Y-89856025D01*
X158993620Y-89819500D01*
X158993616Y-89819500D01*
X157906384Y-89819500D01*
X157906379Y-89819500D01*
X157722756Y-89856025D01*
X157722748Y-89856027D01*
X157549771Y-89927676D01*
X157549762Y-89927681D01*
X157394092Y-90031697D01*
X157394088Y-90031700D01*
X157261700Y-90164088D01*
X157261697Y-90164092D01*
X157157681Y-90319762D01*
X157157676Y-90319771D01*
X157086027Y-90492748D01*
X157086025Y-90492756D01*
X157049500Y-90676379D01*
X134089503Y-90676379D01*
X134111680Y-90622840D01*
X134112271Y-90621411D01*
X134115894Y-90612666D01*
X134123494Y-90574461D01*
X134148442Y-90449035D01*
X134150500Y-90438691D01*
X134150500Y-90261309D01*
X134150500Y-90261306D01*
X134150499Y-90261304D01*
X134115896Y-90087341D01*
X134115893Y-90087332D01*
X134048016Y-89923459D01*
X134048009Y-89923446D01*
X133949464Y-89775965D01*
X133949461Y-89775961D01*
X133824038Y-89650538D01*
X133824034Y-89650535D01*
X133676553Y-89551990D01*
X133676540Y-89551983D01*
X133512667Y-89484106D01*
X133512658Y-89484103D01*
X133338694Y-89449500D01*
X133338691Y-89449500D01*
X133161309Y-89449500D01*
X133161306Y-89449500D01*
X132987341Y-89484103D01*
X132987332Y-89484106D01*
X132823459Y-89551983D01*
X132823446Y-89551990D01*
X132675965Y-89650535D01*
X132587716Y-89738784D01*
X132526392Y-89772268D01*
X132456701Y-89767284D01*
X132400767Y-89725412D01*
X132378418Y-89675293D01*
X132365896Y-89612342D01*
X132365893Y-89612332D01*
X132298016Y-89448459D01*
X132298009Y-89448446D01*
X132199464Y-89300965D01*
X132199461Y-89300961D01*
X132074038Y-89175538D01*
X132074034Y-89175535D01*
X131926553Y-89076990D01*
X131926540Y-89076983D01*
X131762667Y-89009106D01*
X131762658Y-89009103D01*
X131588694Y-88974500D01*
X131588691Y-88974500D01*
X131411309Y-88974500D01*
X131411306Y-88974500D01*
X131237341Y-89009103D01*
X131237332Y-89009106D01*
X131073459Y-89076983D01*
X131073446Y-89076990D01*
X130925965Y-89175535D01*
X130925961Y-89175538D01*
X130800538Y-89300961D01*
X130800535Y-89300965D01*
X130701990Y-89448446D01*
X130701983Y-89448459D01*
X130634106Y-89612332D01*
X130634103Y-89612341D01*
X130599500Y-89786304D01*
X123481315Y-89786304D01*
X123499035Y-89774464D01*
X123534715Y-89738784D01*
X123580964Y-89692536D01*
X123624461Y-89649038D01*
X123624464Y-89649035D01*
X123723013Y-89501547D01*
X123790894Y-89337666D01*
X123793606Y-89324035D01*
X123813964Y-89221682D01*
X123825500Y-89163691D01*
X123825500Y-88986309D01*
X123825500Y-88986306D01*
X123825499Y-88986304D01*
X123790896Y-88812341D01*
X123790893Y-88812332D01*
X123723016Y-88648459D01*
X123723009Y-88648446D01*
X123624464Y-88500965D01*
X123624461Y-88500961D01*
X123499038Y-88375538D01*
X123499034Y-88375535D01*
X123351553Y-88276990D01*
X123351540Y-88276983D01*
X123187667Y-88209106D01*
X123187658Y-88209103D01*
X123013694Y-88174500D01*
X123013691Y-88174500D01*
X122836309Y-88174500D01*
X122836306Y-88174500D01*
X122662341Y-88209103D01*
X122662332Y-88209106D01*
X122498459Y-88276983D01*
X122498446Y-88276990D01*
X122350965Y-88375535D01*
X122350961Y-88375538D01*
X122225538Y-88500961D01*
X122225535Y-88500965D01*
X122126990Y-88648446D01*
X122126983Y-88648459D01*
X122059106Y-88812332D01*
X122059103Y-88812341D01*
X122024500Y-88986304D01*
X117775499Y-88986304D01*
X117740896Y-88812341D01*
X117740893Y-88812332D01*
X117673016Y-88648459D01*
X117673009Y-88648446D01*
X117574464Y-88500965D01*
X117574461Y-88500961D01*
X117449038Y-88375538D01*
X117449034Y-88375535D01*
X117301553Y-88276990D01*
X117301540Y-88276983D01*
X117137667Y-88209106D01*
X117137658Y-88209103D01*
X116963694Y-88174500D01*
X116963691Y-88174500D01*
X116786309Y-88174500D01*
X116786306Y-88174500D01*
X116612341Y-88209103D01*
X116612332Y-88209106D01*
X116448459Y-88276983D01*
X116448446Y-88276990D01*
X116300965Y-88375535D01*
X116300961Y-88375538D01*
X116175538Y-88500961D01*
X116175535Y-88500965D01*
X116076990Y-88648446D01*
X116076983Y-88648459D01*
X116009106Y-88812332D01*
X116009103Y-88812341D01*
X115974500Y-88986304D01*
X111291138Y-88986304D01*
X111297161Y-88956026D01*
X111320499Y-88838695D01*
X111320500Y-88838693D01*
X111320500Y-88661306D01*
X111320499Y-88661304D01*
X111285896Y-88487341D01*
X111285893Y-88487332D01*
X111218016Y-88323459D01*
X111218009Y-88323446D01*
X111119464Y-88175965D01*
X111119461Y-88175961D01*
X110994038Y-88050538D01*
X110994034Y-88050535D01*
X110846553Y-87951990D01*
X110846540Y-87951983D01*
X110682667Y-87884106D01*
X110682658Y-87884103D01*
X110508694Y-87849500D01*
X110508691Y-87849500D01*
X110331309Y-87849500D01*
X110331306Y-87849500D01*
X110157341Y-87884103D01*
X110157332Y-87884106D01*
X109993459Y-87951983D01*
X109993446Y-87951990D01*
X109845965Y-88050535D01*
X109845961Y-88050538D01*
X109720538Y-88175961D01*
X109720535Y-88175965D01*
X109621990Y-88323446D01*
X109621983Y-88323459D01*
X109554106Y-88487332D01*
X109554103Y-88487341D01*
X109519500Y-88661304D01*
X105650500Y-88661304D01*
X105650500Y-88064071D01*
X106839499Y-88064071D01*
X106864497Y-88189738D01*
X106864499Y-88189744D01*
X106913533Y-88308124D01*
X106913538Y-88308133D01*
X106984723Y-88414668D01*
X106984726Y-88414672D01*
X107075326Y-88505272D01*
X107075331Y-88505276D01*
X107181866Y-88576461D01*
X107181872Y-88576464D01*
X107181873Y-88576465D01*
X107300256Y-88625501D01*
X107300260Y-88625501D01*
X107300261Y-88625502D01*
X107425928Y-88650500D01*
X107425931Y-88650500D01*
X107554071Y-88650500D01*
X107638615Y-88633682D01*
X107679744Y-88625501D01*
X107798127Y-88576465D01*
X107798133Y-88576461D01*
X107834570Y-88552115D01*
X107860977Y-88534469D01*
X107904669Y-88505276D01*
X107904671Y-88505274D01*
X107904674Y-88505272D01*
X107995273Y-88414672D01*
X107995276Y-88414669D01*
X108066465Y-88308127D01*
X108115501Y-88189744D01*
X108140500Y-88064069D01*
X108140500Y-87935931D01*
X108140500Y-87935928D01*
X108115502Y-87810261D01*
X108115501Y-87810260D01*
X108115501Y-87810256D01*
X108066465Y-87691873D01*
X108066464Y-87691872D01*
X108066461Y-87691866D01*
X107995276Y-87585331D01*
X107995273Y-87585327D01*
X107904672Y-87494726D01*
X107904668Y-87494723D01*
X107798133Y-87423538D01*
X107798124Y-87423533D01*
X107679744Y-87374499D01*
X107679738Y-87374497D01*
X107554071Y-87349500D01*
X107554069Y-87349500D01*
X107425931Y-87349500D01*
X107425929Y-87349500D01*
X107300261Y-87374497D01*
X107300255Y-87374499D01*
X107181875Y-87423533D01*
X107181866Y-87423538D01*
X107075331Y-87494723D01*
X107075327Y-87494726D01*
X106984726Y-87585327D01*
X106984723Y-87585331D01*
X106913538Y-87691866D01*
X106913533Y-87691875D01*
X106864499Y-87810255D01*
X106864497Y-87810261D01*
X106839500Y-87935928D01*
X106839500Y-87935931D01*
X106839500Y-88064069D01*
X106839500Y-88064071D01*
X106839499Y-88064071D01*
X105650500Y-88064071D01*
X105650500Y-85064071D01*
X106839499Y-85064071D01*
X106864497Y-85189738D01*
X106864499Y-85189744D01*
X106913533Y-85308124D01*
X106913538Y-85308133D01*
X106984723Y-85414668D01*
X106984726Y-85414672D01*
X107075327Y-85505273D01*
X107075331Y-85505276D01*
X107181866Y-85576461D01*
X107181872Y-85576464D01*
X107181873Y-85576465D01*
X107300256Y-85625501D01*
X107300260Y-85625501D01*
X107300261Y-85625502D01*
X107425928Y-85650500D01*
X107425931Y-85650500D01*
X107554071Y-85650500D01*
X107638615Y-85633682D01*
X107679744Y-85625501D01*
X107798127Y-85576465D01*
X107820817Y-85561304D01*
X148999500Y-85561304D01*
X148999500Y-85738695D01*
X149034103Y-85912658D01*
X149034106Y-85912667D01*
X149101983Y-86076540D01*
X149101990Y-86076553D01*
X149200535Y-86224034D01*
X149200538Y-86224038D01*
X149325961Y-86349461D01*
X149325965Y-86349464D01*
X149473446Y-86448009D01*
X149473459Y-86448016D01*
X149596363Y-86498923D01*
X149637334Y-86515894D01*
X149637336Y-86515894D01*
X149637341Y-86515896D01*
X149811304Y-86550499D01*
X149811307Y-86550500D01*
X149811309Y-86550500D01*
X149988693Y-86550500D01*
X149988694Y-86550499D01*
X150046682Y-86538964D01*
X150162658Y-86515896D01*
X150162661Y-86515894D01*
X150162666Y-86515894D01*
X150326547Y-86448013D01*
X150474035Y-86349464D01*
X150599464Y-86224035D01*
X150698013Y-86076547D01*
X150714682Y-86036304D01*
X152474500Y-86036304D01*
X152474500Y-86213695D01*
X152509103Y-86387658D01*
X152509106Y-86387667D01*
X152576983Y-86551540D01*
X152576990Y-86551553D01*
X152675535Y-86699034D01*
X152675538Y-86699038D01*
X152800961Y-86824461D01*
X152800965Y-86824464D01*
X152948446Y-86923009D01*
X152948459Y-86923016D01*
X153071363Y-86973923D01*
X153112334Y-86990894D01*
X153112336Y-86990894D01*
X153112341Y-86990896D01*
X153286304Y-87025499D01*
X153286307Y-87025500D01*
X153286309Y-87025500D01*
X153463693Y-87025500D01*
X153463694Y-87025499D01*
X153521682Y-87013964D01*
X153637658Y-86990896D01*
X153637661Y-86990894D01*
X153637666Y-86990894D01*
X153801547Y-86923013D01*
X153806107Y-86919965D01*
X153872783Y-86899086D01*
X153940163Y-86917569D01*
X153943867Y-86919948D01*
X153948453Y-86923013D01*
X153948455Y-86923014D01*
X153948457Y-86923015D01*
X154057707Y-86968267D01*
X154112334Y-86990894D01*
X154112336Y-86990894D01*
X154112341Y-86990896D01*
X154286304Y-87025499D01*
X154286307Y-87025500D01*
X154286309Y-87025500D01*
X154463693Y-87025500D01*
X154463694Y-87025499D01*
X154521682Y-87013964D01*
X154637658Y-86990896D01*
X154637661Y-86990894D01*
X154637666Y-86990894D01*
X154801547Y-86923013D01*
X154949035Y-86824464D01*
X155074464Y-86699035D01*
X155173013Y-86551547D01*
X155240894Y-86387666D01*
X155248494Y-86349461D01*
X155273442Y-86224035D01*
X155275500Y-86213691D01*
X155275500Y-86036309D01*
X155275500Y-86036306D01*
X155275499Y-86036304D01*
X155240896Y-85862341D01*
X155240893Y-85862332D01*
X155170682Y-85692824D01*
X155173175Y-85691791D01*
X155161288Y-85634819D01*
X155181791Y-85575823D01*
X155198013Y-85551547D01*
X155265894Y-85387666D01*
X155265961Y-85387332D01*
X155298558Y-85223453D01*
X155300500Y-85213691D01*
X155300500Y-85036309D01*
X155300500Y-85036306D01*
X155300499Y-85036304D01*
X155265896Y-84862341D01*
X155265893Y-84862332D01*
X155261606Y-84851983D01*
X155224611Y-84762666D01*
X155198016Y-84698459D01*
X155198009Y-84698446D01*
X155099464Y-84550965D01*
X155099461Y-84550961D01*
X154974038Y-84425538D01*
X154974034Y-84425535D01*
X154826553Y-84326990D01*
X154826540Y-84326983D01*
X154662667Y-84259106D01*
X154662658Y-84259103D01*
X154488694Y-84224500D01*
X154488691Y-84224500D01*
X154311309Y-84224500D01*
X154311306Y-84224500D01*
X154137341Y-84259103D01*
X154137332Y-84259106D01*
X153973459Y-84326983D01*
X153973446Y-84326990D01*
X153968887Y-84330037D01*
X153902208Y-84350912D01*
X153834829Y-84332425D01*
X153831113Y-84330037D01*
X153826553Y-84326990D01*
X153826540Y-84326983D01*
X153662667Y-84259106D01*
X153662658Y-84259103D01*
X153488694Y-84224500D01*
X153488691Y-84224500D01*
X153311309Y-84224500D01*
X153311306Y-84224500D01*
X153137341Y-84259103D01*
X153137332Y-84259106D01*
X152973459Y-84326983D01*
X152973446Y-84326990D01*
X152825965Y-84425535D01*
X152825961Y-84425538D01*
X152700538Y-84550961D01*
X152700535Y-84550965D01*
X152601990Y-84698446D01*
X152601983Y-84698459D01*
X152534106Y-84862332D01*
X152534103Y-84862341D01*
X152499500Y-85036304D01*
X152499500Y-85213695D01*
X152534103Y-85387658D01*
X152534106Y-85387667D01*
X152604318Y-85557176D01*
X152601836Y-85558203D01*
X152613706Y-85615248D01*
X152593209Y-85674174D01*
X152576988Y-85698449D01*
X152576987Y-85698452D01*
X152509106Y-85862332D01*
X152509103Y-85862341D01*
X152474500Y-86036304D01*
X150714682Y-86036304D01*
X150765894Y-85912666D01*
X150775905Y-85862341D01*
X150800499Y-85738695D01*
X150800500Y-85738693D01*
X150800500Y-85561306D01*
X150800499Y-85561304D01*
X150765896Y-85387341D01*
X150765893Y-85387332D01*
X150698016Y-85223459D01*
X150698009Y-85223446D01*
X150599464Y-85075965D01*
X150599461Y-85075961D01*
X150474038Y-84950538D01*
X150474034Y-84950535D01*
X150326553Y-84851990D01*
X150326540Y-84851983D01*
X150162667Y-84784106D01*
X150162658Y-84784103D01*
X149988694Y-84749500D01*
X149988691Y-84749500D01*
X149811309Y-84749500D01*
X149811306Y-84749500D01*
X149637341Y-84784103D01*
X149637332Y-84784106D01*
X149473459Y-84851983D01*
X149473446Y-84851990D01*
X149325965Y-84950535D01*
X149325961Y-84950538D01*
X149200538Y-85075961D01*
X149200535Y-85075965D01*
X149101990Y-85223446D01*
X149101983Y-85223459D01*
X149034106Y-85387332D01*
X149034103Y-85387341D01*
X148999500Y-85561304D01*
X107820817Y-85561304D01*
X107904669Y-85505276D01*
X107904672Y-85505273D01*
X107942410Y-85467536D01*
X107995273Y-85414672D01*
X107995276Y-85414669D01*
X108066465Y-85308127D01*
X108115501Y-85189744D01*
X108138134Y-85075965D01*
X108140500Y-85064071D01*
X108140500Y-84935928D01*
X108115502Y-84810261D01*
X108115501Y-84810260D01*
X108115501Y-84810256D01*
X108066465Y-84691873D01*
X108066464Y-84691872D01*
X108066461Y-84691866D01*
X107995276Y-84585331D01*
X107995273Y-84585327D01*
X107904672Y-84494726D01*
X107904668Y-84494723D01*
X107798133Y-84423538D01*
X107798124Y-84423533D01*
X107768600Y-84411304D01*
X127599500Y-84411304D01*
X127599500Y-84588695D01*
X127634103Y-84762658D01*
X127634106Y-84762667D01*
X127701983Y-84926540D01*
X127701990Y-84926553D01*
X127800535Y-85074034D01*
X127800538Y-85074038D01*
X127925961Y-85199461D01*
X127925965Y-85199464D01*
X128073446Y-85298009D01*
X128073459Y-85298016D01*
X128196363Y-85348923D01*
X128237334Y-85365894D01*
X128237336Y-85365894D01*
X128237341Y-85365896D01*
X128411304Y-85400499D01*
X128411307Y-85400500D01*
X128411309Y-85400500D01*
X128588693Y-85400500D01*
X128588694Y-85400499D01*
X128646682Y-85388964D01*
X128762658Y-85365896D01*
X128762661Y-85365894D01*
X128762666Y-85365894D01*
X128926547Y-85298013D01*
X129074035Y-85199464D01*
X129199464Y-85074035D01*
X129298013Y-84926547D01*
X129305572Y-84908299D01*
X129324608Y-84862341D01*
X129365894Y-84762666D01*
X129400500Y-84588691D01*
X129400500Y-84411309D01*
X129400500Y-84411306D01*
X129400499Y-84411304D01*
X129365896Y-84237341D01*
X129365893Y-84237332D01*
X129316378Y-84117790D01*
X129316373Y-84117779D01*
X129299225Y-84076379D01*
X157049500Y-84076379D01*
X157049500Y-84263620D01*
X157086025Y-84447243D01*
X157086027Y-84447251D01*
X157157676Y-84620228D01*
X157157681Y-84620237D01*
X157261697Y-84775907D01*
X157261700Y-84775911D01*
X157394088Y-84908299D01*
X157394092Y-84908302D01*
X157549762Y-85012318D01*
X157549768Y-85012321D01*
X157549769Y-85012322D01*
X157722749Y-85083973D01*
X157906379Y-85120499D01*
X157906383Y-85120500D01*
X157906384Y-85120500D01*
X158993617Y-85120500D01*
X158993618Y-85120499D01*
X159177251Y-85083973D01*
X159350231Y-85012322D01*
X159505908Y-84908302D01*
X159638302Y-84775908D01*
X159742322Y-84620231D01*
X159813973Y-84447251D01*
X159850500Y-84263616D01*
X159850500Y-84076384D01*
X159813973Y-83892749D01*
X159742322Y-83719769D01*
X159742321Y-83719768D01*
X159742318Y-83719762D01*
X159638302Y-83564092D01*
X159638299Y-83564088D01*
X159505911Y-83431700D01*
X159505907Y-83431697D01*
X159350237Y-83327681D01*
X159350228Y-83327676D01*
X159177251Y-83256027D01*
X159177243Y-83256025D01*
X158993620Y-83219500D01*
X158993616Y-83219500D01*
X157906384Y-83219500D01*
X157906379Y-83219500D01*
X157722756Y-83256025D01*
X157722748Y-83256027D01*
X157549771Y-83327676D01*
X157549762Y-83327681D01*
X157394092Y-83431697D01*
X157394088Y-83431700D01*
X157261700Y-83564088D01*
X157261697Y-83564092D01*
X157157681Y-83719762D01*
X157157676Y-83719771D01*
X157086027Y-83892748D01*
X157086025Y-83892756D01*
X157049500Y-84076379D01*
X129299225Y-84076379D01*
X129298013Y-84073453D01*
X129298011Y-84073450D01*
X129298009Y-84073446D01*
X129199464Y-83925965D01*
X129199461Y-83925961D01*
X129074038Y-83800538D01*
X129074034Y-83800535D01*
X128926553Y-83701990D01*
X128926540Y-83701983D01*
X128762667Y-83634106D01*
X128762658Y-83634103D01*
X128588694Y-83599500D01*
X128588691Y-83599500D01*
X128411309Y-83599500D01*
X128411306Y-83599500D01*
X128237341Y-83634103D01*
X128237332Y-83634106D01*
X128073459Y-83701983D01*
X128073446Y-83701990D01*
X127925965Y-83800535D01*
X127925961Y-83800538D01*
X127800538Y-83925961D01*
X127800535Y-83925965D01*
X127701990Y-84073446D01*
X127701983Y-84073459D01*
X127634106Y-84237332D01*
X127634103Y-84237341D01*
X127599500Y-84411304D01*
X107768600Y-84411304D01*
X107679744Y-84374499D01*
X107679738Y-84374497D01*
X107554071Y-84349500D01*
X107554069Y-84349500D01*
X107425931Y-84349500D01*
X107425929Y-84349500D01*
X107300261Y-84374497D01*
X107300255Y-84374499D01*
X107181875Y-84423533D01*
X107181866Y-84423538D01*
X107075331Y-84494723D01*
X107075327Y-84494726D01*
X106984726Y-84585327D01*
X106984723Y-84585331D01*
X106913538Y-84691866D01*
X106913533Y-84691875D01*
X106864499Y-84810255D01*
X106864497Y-84810261D01*
X106839500Y-84935928D01*
X106839500Y-84935931D01*
X106839500Y-85064069D01*
X106839500Y-85064071D01*
X106839499Y-85064071D01*
X105650500Y-85064071D01*
X105650500Y-76502561D01*
X105650606Y-76497437D01*
X105654478Y-76403818D01*
X105659169Y-76290402D01*
X105949500Y-76290402D01*
X105949500Y-76709597D01*
X105986035Y-77127188D01*
X105991818Y-77159983D01*
X106058824Y-77539998D01*
X106058828Y-77540015D01*
X106167316Y-77944902D01*
X106167319Y-77944912D01*
X106167320Y-77944913D01*
X106310691Y-78338822D01*
X106310694Y-78338829D01*
X106310695Y-78338831D01*
X106310698Y-78338839D01*
X106487843Y-78718726D01*
X106487848Y-78718736D01*
X106697443Y-79081764D01*
X106697447Y-79081770D01*
X106697454Y-79081781D01*
X106937879Y-79425144D01*
X107132640Y-79657249D01*
X107207329Y-79746260D01*
X107503740Y-80042671D01*
X107637255Y-80154704D01*
X107824855Y-80312120D01*
X108168218Y-80552545D01*
X108168225Y-80552549D01*
X108168236Y-80552557D01*
X108531264Y-80762152D01*
X108531273Y-80762156D01*
X108911160Y-80939301D01*
X108911164Y-80939302D01*
X108911178Y-80939309D01*
X109305087Y-81082680D01*
X109305093Y-81082681D01*
X109305097Y-81082683D01*
X109415359Y-81112227D01*
X109709992Y-81191174D01*
X110122812Y-81263965D01*
X110540404Y-81300499D01*
X110540405Y-81300500D01*
X110540406Y-81300500D01*
X110959595Y-81300500D01*
X110959595Y-81300499D01*
X111377188Y-81263965D01*
X111790008Y-81191174D01*
X112194913Y-81082680D01*
X112588822Y-80939309D01*
X112968736Y-80762152D01*
X113331764Y-80552557D01*
X113675143Y-80312121D01*
X113996260Y-80042671D01*
X114292671Y-79746260D01*
X114562121Y-79425143D01*
X114802557Y-79081764D01*
X115012152Y-78718736D01*
X115189309Y-78338822D01*
X115332680Y-77944913D01*
X115441174Y-77540008D01*
X115513965Y-77127188D01*
X115550500Y-76709594D01*
X115550500Y-76403818D01*
X116523500Y-76403818D01*
X116523500Y-76596181D01*
X116561024Y-76784827D01*
X116561026Y-76784835D01*
X116634635Y-76962542D01*
X116634640Y-76962552D01*
X116741502Y-77122482D01*
X116741505Y-77122486D01*
X116877513Y-77258494D01*
X116877517Y-77258497D01*
X117037447Y-77365359D01*
X117037451Y-77365361D01*
X117037454Y-77365363D01*
X117215165Y-77438974D01*
X117403687Y-77476473D01*
X117403818Y-77476499D01*
X117403822Y-77476500D01*
X117403823Y-77476500D01*
X117596178Y-77476500D01*
X117596179Y-77476499D01*
X117784835Y-77438974D01*
X117962546Y-77365363D01*
X118122483Y-77258497D01*
X118258497Y-77122483D01*
X118365363Y-76962546D01*
X118438974Y-76784835D01*
X118476500Y-76596177D01*
X118476500Y-76403823D01*
X118438974Y-76215165D01*
X118416664Y-76161304D01*
X121849500Y-76161304D01*
X121849500Y-76838695D01*
X121884103Y-77012658D01*
X121884106Y-77012667D01*
X121951983Y-77176540D01*
X121951990Y-77176553D01*
X122050535Y-77324034D01*
X122050538Y-77324038D01*
X122175961Y-77449461D01*
X122175965Y-77449464D01*
X122323446Y-77548009D01*
X122323459Y-77548016D01*
X122446363Y-77598923D01*
X122487334Y-77615894D01*
X122487336Y-77615894D01*
X122487341Y-77615896D01*
X122661304Y-77650499D01*
X122661307Y-77650500D01*
X122661309Y-77650500D01*
X122838693Y-77650500D01*
X122838694Y-77650499D01*
X122896682Y-77638964D01*
X123012658Y-77615896D01*
X123012661Y-77615894D01*
X123012666Y-77615894D01*
X123176547Y-77548013D01*
X123306109Y-77461442D01*
X123372786Y-77440564D01*
X123440166Y-77459048D01*
X123443891Y-77461442D01*
X123466425Y-77476499D01*
X123573453Y-77548013D01*
X123573455Y-77548014D01*
X123573459Y-77548016D01*
X123696363Y-77598923D01*
X123737334Y-77615894D01*
X123737336Y-77615894D01*
X123737341Y-77615896D01*
X123911304Y-77650499D01*
X123911307Y-77650500D01*
X123911309Y-77650500D01*
X124088693Y-77650500D01*
X124088694Y-77650499D01*
X124146682Y-77638964D01*
X124262658Y-77615896D01*
X124262661Y-77615894D01*
X124262666Y-77615894D01*
X124426547Y-77548013D01*
X124556109Y-77461442D01*
X124622786Y-77440564D01*
X124690166Y-77459048D01*
X124693891Y-77461442D01*
X124716425Y-77476499D01*
X124823453Y-77548013D01*
X124823455Y-77548014D01*
X124823459Y-77548016D01*
X124946363Y-77598923D01*
X124987334Y-77615894D01*
X124987336Y-77615894D01*
X124987341Y-77615896D01*
X125161304Y-77650499D01*
X125161307Y-77650500D01*
X125161309Y-77650500D01*
X125338693Y-77650500D01*
X125338694Y-77650499D01*
X125396682Y-77638964D01*
X125512658Y-77615896D01*
X125512661Y-77615894D01*
X125512666Y-77615894D01*
X125676547Y-77548013D01*
X125824035Y-77449464D01*
X125949464Y-77324035D01*
X126048013Y-77176547D01*
X126115894Y-77012666D01*
X126118405Y-77000046D01*
X126150499Y-76838695D01*
X126150500Y-76838693D01*
X126150500Y-76441318D01*
X148023500Y-76441318D01*
X148023500Y-76633681D01*
X148061024Y-76822327D01*
X148061026Y-76822335D01*
X148134635Y-77000042D01*
X148134640Y-77000052D01*
X148241502Y-77159982D01*
X148241505Y-77159986D01*
X148377513Y-77295994D01*
X148377517Y-77295997D01*
X148537447Y-77402859D01*
X148537451Y-77402861D01*
X148537454Y-77402863D01*
X148715165Y-77476474D01*
X148903818Y-77513999D01*
X148903822Y-77514000D01*
X148903823Y-77514000D01*
X149096178Y-77514000D01*
X149096179Y-77513999D01*
X149284835Y-77476474D01*
X149462546Y-77402863D01*
X149622483Y-77295997D01*
X149758497Y-77159983D01*
X149865363Y-77000046D01*
X149938974Y-76822335D01*
X149976500Y-76633677D01*
X149976500Y-76441323D01*
X149959146Y-76354077D01*
X149950755Y-76311891D01*
X149946480Y-76290402D01*
X150949500Y-76290402D01*
X150949500Y-76709597D01*
X150986035Y-77127188D01*
X150991818Y-77159983D01*
X151058824Y-77539998D01*
X151058828Y-77540015D01*
X151167316Y-77944902D01*
X151167319Y-77944912D01*
X151167320Y-77944913D01*
X151310691Y-78338822D01*
X151310694Y-78338829D01*
X151310695Y-78338831D01*
X151310698Y-78338839D01*
X151487843Y-78718726D01*
X151487848Y-78718736D01*
X151697443Y-79081764D01*
X151697447Y-79081770D01*
X151697454Y-79081781D01*
X151937879Y-79425144D01*
X152132640Y-79657249D01*
X152207329Y-79746260D01*
X152503740Y-80042671D01*
X152637255Y-80154704D01*
X152824855Y-80312120D01*
X153168218Y-80552545D01*
X153168225Y-80552549D01*
X153168236Y-80552557D01*
X153531264Y-80762152D01*
X153531273Y-80762156D01*
X153911160Y-80939301D01*
X153911164Y-80939302D01*
X153911178Y-80939309D01*
X154305087Y-81082680D01*
X154305093Y-81082681D01*
X154305097Y-81082683D01*
X154415359Y-81112227D01*
X154709992Y-81191174D01*
X155122812Y-81263965D01*
X155540404Y-81300499D01*
X155540405Y-81300500D01*
X155540406Y-81300500D01*
X155959595Y-81300500D01*
X155959595Y-81300499D01*
X156377188Y-81263965D01*
X156790008Y-81191174D01*
X157194913Y-81082680D01*
X157588822Y-80939309D01*
X157968736Y-80762152D01*
X158331764Y-80552557D01*
X158675143Y-80312121D01*
X158996260Y-80042671D01*
X159292671Y-79746260D01*
X159562121Y-79425143D01*
X159802557Y-79081764D01*
X160012152Y-78718736D01*
X160189309Y-78338822D01*
X160332680Y-77944913D01*
X160441174Y-77540008D01*
X160513965Y-77127188D01*
X160550500Y-76709594D01*
X160550500Y-76290406D01*
X160513965Y-75872812D01*
X160505260Y-75823446D01*
X160476555Y-75660650D01*
X160441174Y-75459992D01*
X160332680Y-75055087D01*
X160189309Y-74661178D01*
X160178190Y-74637334D01*
X160032996Y-74325965D01*
X160012152Y-74281264D01*
X159802557Y-73918236D01*
X159802549Y-73918225D01*
X159802545Y-73918218D01*
X159562120Y-73574855D01*
X159363955Y-73338693D01*
X159292671Y-73253740D01*
X158996260Y-72957329D01*
X158861459Y-72844217D01*
X158675144Y-72687879D01*
X158331781Y-72447454D01*
X158331770Y-72447447D01*
X158331764Y-72447443D01*
X158162122Y-72349500D01*
X157968742Y-72237851D01*
X157968726Y-72237843D01*
X157588839Y-72060698D01*
X157588831Y-72060695D01*
X157588829Y-72060694D01*
X157588822Y-72060691D01*
X157194913Y-71917320D01*
X157194912Y-71917319D01*
X157194902Y-71917316D01*
X156790015Y-71808828D01*
X156790018Y-71808828D01*
X156790008Y-71808826D01*
X156790002Y-71808824D01*
X156789998Y-71808824D01*
X156377192Y-71736035D01*
X155959597Y-71699500D01*
X155959594Y-71699500D01*
X155540406Y-71699500D01*
X155540402Y-71699500D01*
X155122809Y-71736035D01*
X155122805Y-71736035D01*
X154710001Y-71808824D01*
X154709984Y-71808828D01*
X154305097Y-71917316D01*
X154108132Y-71989005D01*
X153911178Y-72060691D01*
X153911174Y-72060692D01*
X153911168Y-72060695D01*
X153911160Y-72060698D01*
X153531273Y-72237843D01*
X153531257Y-72237851D01*
X153168244Y-72447438D01*
X153168218Y-72447454D01*
X152824855Y-72687879D01*
X152503737Y-72957331D01*
X152207331Y-73253737D01*
X151937879Y-73574855D01*
X151697454Y-73918218D01*
X151697438Y-73918244D01*
X151487851Y-74281257D01*
X151487843Y-74281273D01*
X151310698Y-74661160D01*
X151310695Y-74661168D01*
X151167316Y-75055097D01*
X151058828Y-75459984D01*
X151058824Y-75460001D01*
X150986035Y-75872805D01*
X150986035Y-75872806D01*
X150986035Y-75872812D01*
X150968006Y-76078887D01*
X150949500Y-76290402D01*
X149946480Y-76290402D01*
X149938975Y-76252672D01*
X149938974Y-76252665D01*
X149865363Y-76074954D01*
X149865361Y-76074951D01*
X149865359Y-76074947D01*
X149758497Y-75915017D01*
X149758494Y-75915013D01*
X149622486Y-75779005D01*
X149622482Y-75779002D01*
X149462552Y-75672140D01*
X149462542Y-75672135D01*
X149284835Y-75598526D01*
X149284827Y-75598524D01*
X149096181Y-75561000D01*
X149096177Y-75561000D01*
X148903823Y-75561000D01*
X148903818Y-75561000D01*
X148715172Y-75598524D01*
X148715164Y-75598526D01*
X148537457Y-75672135D01*
X148537447Y-75672140D01*
X148377517Y-75779002D01*
X148377513Y-75779005D01*
X148241505Y-75915013D01*
X148241502Y-75915017D01*
X148134640Y-76074947D01*
X148134635Y-76074957D01*
X148061026Y-76252664D01*
X148061024Y-76252672D01*
X148023500Y-76441318D01*
X126150500Y-76441318D01*
X126150500Y-76161306D01*
X126150499Y-76161304D01*
X126115896Y-75987341D01*
X126115893Y-75987332D01*
X126048016Y-75823459D01*
X126048009Y-75823446D01*
X125949464Y-75675965D01*
X125949461Y-75675961D01*
X125824038Y-75550538D01*
X125824034Y-75550535D01*
X125676553Y-75451990D01*
X125676540Y-75451983D01*
X125512667Y-75384106D01*
X125512658Y-75384103D01*
X125338694Y-75349500D01*
X125338691Y-75349500D01*
X125161309Y-75349500D01*
X125161306Y-75349500D01*
X124987341Y-75384103D01*
X124987332Y-75384106D01*
X124823459Y-75451983D01*
X124823446Y-75451990D01*
X124693891Y-75538557D01*
X124627213Y-75559435D01*
X124559833Y-75540950D01*
X124556109Y-75538557D01*
X124426553Y-75451990D01*
X124426540Y-75451983D01*
X124262667Y-75384106D01*
X124262658Y-75384103D01*
X124088694Y-75349500D01*
X124088691Y-75349500D01*
X123911309Y-75349500D01*
X123911306Y-75349500D01*
X123737341Y-75384103D01*
X123737332Y-75384106D01*
X123573459Y-75451983D01*
X123573446Y-75451990D01*
X123443891Y-75538557D01*
X123377213Y-75559435D01*
X123309833Y-75540950D01*
X123306109Y-75538557D01*
X123176553Y-75451990D01*
X123176540Y-75451983D01*
X123012667Y-75384106D01*
X123012658Y-75384103D01*
X122838694Y-75349500D01*
X122838691Y-75349500D01*
X122661309Y-75349500D01*
X122661306Y-75349500D01*
X122487341Y-75384103D01*
X122487332Y-75384106D01*
X122323459Y-75451983D01*
X122323446Y-75451990D01*
X122175965Y-75550535D01*
X122175961Y-75550538D01*
X122050538Y-75675961D01*
X122050535Y-75675965D01*
X121951990Y-75823446D01*
X121951983Y-75823459D01*
X121884106Y-75987332D01*
X121884103Y-75987341D01*
X121849500Y-76161304D01*
X118416664Y-76161304D01*
X118365363Y-76037454D01*
X118365361Y-76037451D01*
X118365359Y-76037447D01*
X118258497Y-75877517D01*
X118258494Y-75877513D01*
X118122486Y-75741505D01*
X118122482Y-75741502D01*
X117962552Y-75634640D01*
X117962542Y-75634635D01*
X117784835Y-75561026D01*
X117784827Y-75561024D01*
X117596181Y-75523500D01*
X117596177Y-75523500D01*
X117403823Y-75523500D01*
X117403818Y-75523500D01*
X117215172Y-75561024D01*
X117215164Y-75561026D01*
X117037457Y-75634635D01*
X117037447Y-75634640D01*
X116877517Y-75741502D01*
X116877513Y-75741505D01*
X116741505Y-75877513D01*
X116741502Y-75877517D01*
X116634640Y-76037447D01*
X116634635Y-76037457D01*
X116561026Y-76215164D01*
X116561024Y-76215172D01*
X116523500Y-76403818D01*
X115550500Y-76403818D01*
X115550500Y-76290406D01*
X115513965Y-75872812D01*
X115505260Y-75823446D01*
X115476555Y-75660650D01*
X115441174Y-75459992D01*
X115332680Y-75055087D01*
X115243950Y-74811304D01*
X143099500Y-74811304D01*
X143099500Y-74988695D01*
X143134103Y-75162658D01*
X143134106Y-75162667D01*
X143201983Y-75326540D01*
X143201990Y-75326553D01*
X143300535Y-75474034D01*
X143300538Y-75474038D01*
X143425961Y-75599461D01*
X143425965Y-75599464D01*
X143573446Y-75698009D01*
X143573459Y-75698016D01*
X143678446Y-75741502D01*
X143737334Y-75765894D01*
X143737336Y-75765894D01*
X143737341Y-75765896D01*
X143911304Y-75800499D01*
X143911307Y-75800500D01*
X143911309Y-75800500D01*
X144088693Y-75800500D01*
X144088694Y-75800499D01*
X144146682Y-75788964D01*
X144262658Y-75765896D01*
X144262661Y-75765894D01*
X144262666Y-75765894D01*
X144426547Y-75698013D01*
X144574035Y-75599464D01*
X144699464Y-75474035D01*
X144798013Y-75326547D01*
X144865894Y-75162666D01*
X144900500Y-74988691D01*
X144900500Y-74811309D01*
X144900500Y-74811306D01*
X144900499Y-74811304D01*
X144865896Y-74637341D01*
X144865893Y-74637332D01*
X144798016Y-74473459D01*
X144798009Y-74473446D01*
X144699464Y-74325965D01*
X144699461Y-74325961D01*
X144574038Y-74200538D01*
X144574034Y-74200535D01*
X144426553Y-74101990D01*
X144426540Y-74101983D01*
X144262667Y-74034106D01*
X144262658Y-74034103D01*
X144088694Y-73999500D01*
X144088691Y-73999500D01*
X143911309Y-73999500D01*
X143911306Y-73999500D01*
X143737341Y-74034103D01*
X143737332Y-74034106D01*
X143573459Y-74101983D01*
X143573446Y-74101990D01*
X143425965Y-74200535D01*
X143425961Y-74200538D01*
X143300538Y-74325961D01*
X143300535Y-74325965D01*
X143201990Y-74473446D01*
X143201983Y-74473459D01*
X143134106Y-74637332D01*
X143134103Y-74637341D01*
X143099500Y-74811304D01*
X115243950Y-74811304D01*
X115189309Y-74661178D01*
X115178190Y-74637334D01*
X115032996Y-74325965D01*
X115012152Y-74281264D01*
X114802557Y-73918236D01*
X114802549Y-73918225D01*
X114802545Y-73918218D01*
X114562120Y-73574855D01*
X114363955Y-73338693D01*
X114292671Y-73253740D01*
X114200235Y-73161304D01*
X131299500Y-73161304D01*
X131299500Y-73338695D01*
X131334103Y-73512658D01*
X131334106Y-73512667D01*
X131401983Y-73676540D01*
X131401990Y-73676553D01*
X131500535Y-73824034D01*
X131500538Y-73824038D01*
X131625961Y-73949461D01*
X131625965Y-73949464D01*
X131773446Y-74048009D01*
X131773459Y-74048016D01*
X131896363Y-74098923D01*
X131937334Y-74115894D01*
X131937336Y-74115894D01*
X131937341Y-74115896D01*
X132111304Y-74150499D01*
X132111307Y-74150500D01*
X132111309Y-74150500D01*
X132288693Y-74150500D01*
X132288694Y-74150499D01*
X132346682Y-74138964D01*
X132462658Y-74115896D01*
X132462661Y-74115894D01*
X132462666Y-74115894D01*
X132626547Y-74048013D01*
X132774035Y-73949464D01*
X132899464Y-73824035D01*
X132998013Y-73676547D01*
X133065894Y-73512666D01*
X133100500Y-73338691D01*
X133100500Y-73161309D01*
X133100500Y-73161306D01*
X133100499Y-73161304D01*
X133849500Y-73161304D01*
X133849500Y-73338695D01*
X133884103Y-73512658D01*
X133884106Y-73512667D01*
X133951983Y-73676540D01*
X133951990Y-73676553D01*
X134050535Y-73824034D01*
X134050538Y-73824038D01*
X134175961Y-73949461D01*
X134175965Y-73949464D01*
X134323446Y-74048009D01*
X134323459Y-74048016D01*
X134446363Y-74098923D01*
X134487334Y-74115894D01*
X134487336Y-74115894D01*
X134487341Y-74115896D01*
X134661304Y-74150499D01*
X134661307Y-74150500D01*
X134661309Y-74150500D01*
X134838693Y-74150500D01*
X134838694Y-74150499D01*
X134896682Y-74138964D01*
X135012658Y-74115896D01*
X135012661Y-74115894D01*
X135012666Y-74115894D01*
X135176547Y-74048013D01*
X135318611Y-73953087D01*
X135385286Y-73932211D01*
X135452666Y-73950695D01*
X135456344Y-73953058D01*
X135598453Y-74048013D01*
X135598455Y-74048014D01*
X135598459Y-74048016D01*
X135721363Y-74098923D01*
X135762334Y-74115894D01*
X135762336Y-74115894D01*
X135762341Y-74115896D01*
X135936304Y-74150499D01*
X135936307Y-74150500D01*
X135936309Y-74150500D01*
X136113693Y-74150500D01*
X136113694Y-74150499D01*
X136171682Y-74138964D01*
X136287658Y-74115896D01*
X136287661Y-74115894D01*
X136287666Y-74115894D01*
X136451547Y-74048013D01*
X136599035Y-73949464D01*
X136724464Y-73824035D01*
X136823013Y-73676547D01*
X136890894Y-73512666D01*
X136925500Y-73338691D01*
X136925500Y-73161309D01*
X136925500Y-73161306D01*
X136925499Y-73161304D01*
X136890896Y-72987341D01*
X136890893Y-72987332D01*
X136823016Y-72823459D01*
X136823009Y-72823446D01*
X136724464Y-72675965D01*
X136724461Y-72675961D01*
X136599038Y-72550538D01*
X136599034Y-72550535D01*
X136451553Y-72451990D01*
X136451540Y-72451983D01*
X136287667Y-72384106D01*
X136287658Y-72384103D01*
X136113694Y-72349500D01*
X136113691Y-72349500D01*
X135936309Y-72349500D01*
X135936306Y-72349500D01*
X135762341Y-72384103D01*
X135762332Y-72384106D01*
X135598459Y-72451983D01*
X135598446Y-72451990D01*
X135456391Y-72546910D01*
X135389714Y-72567788D01*
X135322334Y-72549304D01*
X135318609Y-72546910D01*
X135176553Y-72451990D01*
X135176540Y-72451983D01*
X135012667Y-72384106D01*
X135012658Y-72384103D01*
X134838694Y-72349500D01*
X134838691Y-72349500D01*
X134661309Y-72349500D01*
X134661306Y-72349500D01*
X134487341Y-72384103D01*
X134487332Y-72384106D01*
X134323459Y-72451983D01*
X134323446Y-72451990D01*
X134175965Y-72550535D01*
X134175961Y-72550538D01*
X134050538Y-72675961D01*
X134050535Y-72675965D01*
X133951990Y-72823446D01*
X133951983Y-72823459D01*
X133884106Y-72987332D01*
X133884103Y-72987341D01*
X133849500Y-73161304D01*
X133100499Y-73161304D01*
X133065896Y-72987341D01*
X133065893Y-72987332D01*
X132998016Y-72823459D01*
X132998009Y-72823446D01*
X132899464Y-72675965D01*
X132899461Y-72675961D01*
X132774038Y-72550538D01*
X132774034Y-72550535D01*
X132626553Y-72451990D01*
X132626540Y-72451983D01*
X132462667Y-72384106D01*
X132462658Y-72384103D01*
X132288694Y-72349500D01*
X132288691Y-72349500D01*
X132111309Y-72349500D01*
X132111306Y-72349500D01*
X131937341Y-72384103D01*
X131937332Y-72384106D01*
X131773459Y-72451983D01*
X131773446Y-72451990D01*
X131625965Y-72550535D01*
X131625961Y-72550538D01*
X131500538Y-72675961D01*
X131500535Y-72675965D01*
X131401990Y-72823446D01*
X131401983Y-72823459D01*
X131334106Y-72987332D01*
X131334103Y-72987341D01*
X131299500Y-73161304D01*
X114200235Y-73161304D01*
X113996260Y-72957329D01*
X113861459Y-72844217D01*
X113675144Y-72687879D01*
X113331781Y-72447454D01*
X113331770Y-72447447D01*
X113331764Y-72447443D01*
X113162122Y-72349500D01*
X112968742Y-72237851D01*
X112968726Y-72237843D01*
X112588839Y-72060698D01*
X112588831Y-72060695D01*
X112588829Y-72060694D01*
X112588822Y-72060691D01*
X112194913Y-71917320D01*
X112194912Y-71917319D01*
X112194902Y-71917316D01*
X111790015Y-71808828D01*
X111790018Y-71808828D01*
X111790008Y-71808826D01*
X111790002Y-71808824D01*
X111789998Y-71808824D01*
X111377192Y-71736035D01*
X110959597Y-71699500D01*
X110959594Y-71699500D01*
X110540406Y-71699500D01*
X110540402Y-71699500D01*
X110122809Y-71736035D01*
X110122805Y-71736035D01*
X109710001Y-71808824D01*
X109709984Y-71808828D01*
X109305097Y-71917316D01*
X109108132Y-71989005D01*
X108911178Y-72060691D01*
X108911174Y-72060692D01*
X108911168Y-72060695D01*
X108911160Y-72060698D01*
X108531273Y-72237843D01*
X108531257Y-72237851D01*
X108168244Y-72447438D01*
X108168218Y-72447454D01*
X107824855Y-72687879D01*
X107503737Y-72957331D01*
X107207331Y-73253737D01*
X106937879Y-73574855D01*
X106697454Y-73918218D01*
X106697438Y-73918244D01*
X106487851Y-74281257D01*
X106487843Y-74281273D01*
X106310698Y-74661160D01*
X106310695Y-74661168D01*
X106167316Y-75055097D01*
X106058828Y-75459984D01*
X106058824Y-75460001D01*
X105986035Y-75872805D01*
X105986035Y-75872806D01*
X105986035Y-75872812D01*
X105968006Y-76078887D01*
X105949500Y-76290402D01*
X105659169Y-76290402D01*
X105667705Y-76083993D01*
X105668548Y-76073824D01*
X105719417Y-75665731D01*
X105721104Y-75655627D01*
X105805491Y-75253163D01*
X105808006Y-75243232D01*
X105925348Y-74849085D01*
X105928663Y-74839433D01*
X106078152Y-74456324D01*
X106082268Y-74446943D01*
X106202730Y-74200535D01*
X106262870Y-74077516D01*
X106267743Y-74068510D01*
X106279957Y-74048013D01*
X106478256Y-73715224D01*
X106483849Y-73706664D01*
X106722809Y-73371979D01*
X106729077Y-73363925D01*
X106994871Y-73050104D01*
X107001790Y-73042588D01*
X107292588Y-72751790D01*
X107300104Y-72744871D01*
X107613925Y-72479077D01*
X107621979Y-72472809D01*
X107956664Y-72233849D01*
X107965224Y-72228256D01*
X108318518Y-72017738D01*
X108327516Y-72012870D01*
X108696946Y-71832266D01*
X108706328Y-71828151D01*
X109089433Y-71678663D01*
X109099085Y-71675348D01*
X109493237Y-71558004D01*
X109503163Y-71555491D01*
X109905631Y-71471103D01*
X109915731Y-71469417D01*
X110323824Y-71418548D01*
X110333993Y-71417705D01*
X110747437Y-71400605D01*
X110752561Y-71400500D01*
X110807583Y-71400500D01*
X155692417Y-71400500D01*
X155747439Y-71400500D01*
X155752562Y-71400605D01*
G37*
%TD.AperFunction*%
%TD*%
M02*
